<svg width="91" height="138" viewBox="0 0 91 138" fill="none" xmlns="http://www.w3.org/2000/svg">
<path d="M43.3907 0C52.2296 0 59.7962 0.72079 66.0905 2.16238C72.5188 3.60398 77.4069 6.42166 80.755 10.6154C84.2369 14.8091 85.9779 21.0342 85.9779 29.2906C85.9779 34.9259 85.1744 40.2336 83.5673 45.2137C82.0942 50.1937 79.5497 55.3704 75.9338 60.7436C72.3179 65.9858 67.4297 71.9487 61.2693 78.6325L21.4945 122.077C24.9765 121.815 28.6593 121.618 32.543 121.487C36.5607 121.356 40.3775 121.291 43.9934 121.291H91V138H0V127.188C0 125.746 0.200883 124.436 0.602648 123.256C1.00441 121.946 1.67402 120.766 2.61148 119.718L42.7881 75.2906C51.6269 65.9858 58.1221 57.7294 62.2737 50.5214C66.4253 43.3134 68.3672 36.4986 68.0993 30.0769C67.9654 25.6211 66.8271 22.4103 64.6843 20.4444C62.6755 18.3476 59.7292 16.9715 55.8455 16.3162C52.0957 15.661 47.5423 15.3333 42.1854 15.3333C37.8999 15.3333 33.8153 15.3989 29.9316 15.5299C26.0478 15.661 21.8962 15.9886 17.4768 16.5128C13.1913 16.906 8.16924 17.5613 2.4106 18.4786L1.2053 5.1111C7.49963 3.66951 12.9904 2.62107 17.6777 1.9658C22.4989 1.17948 26.9183 0.655269 30.936 0.393156C35.0876 0.131052 39.2391 0 43.3907 0Z" fill="#FFEFF2"/>
</svg>
