<svg width="87" height="138" viewBox="0 0 87 138" fill="none" xmlns="http://www.w3.org/2000/svg">
<path d="M40.9136 0C50.9764 0 59.0532 0.963682 65.1439 2.89105C71.367 4.68994 75.935 7.83798 78.848 12.3352C81.7609 16.8324 83.2174 23 83.2174 30.838C83.2174 36.4916 82.6216 41.6955 81.4299 46.4497C80.2382 51.0754 78.186 54.9944 75.273 58.2067C72.4925 61.2905 68.4541 63.3464 63.1578 64.3743V65.1452C72.1615 66.5587 78.3184 70.2207 81.6285 76.1313C85.0711 81.9134 86.8586 89.3659 86.991 98.4888C87.1234 107.483 85.7993 114.936 83.0188 120.846C80.2383 126.628 75.6702 130.933 69.3147 133.76C62.9592 136.587 54.3528 138 43.4955 138C36.2131 138 28.8646 137.615 21.4498 136.844C14.1675 136.201 7.01754 135.43 0 134.531L1.19166 120.846C5.69347 121.232 9.99668 121.617 14.1013 122.003C18.3383 122.26 22.5091 122.453 26.6137 122.581C30.7183 122.709 34.8891 122.774 39.1261 122.774C46.5408 122.774 52.4329 122.003 56.8023 120.461C61.3041 118.79 64.5481 116.028 66.5342 112.173C68.6527 108.318 69.7119 103.179 69.7119 96.7542C69.7119 91.8715 68.9837 87.6313 67.5272 84.0335C66.2032 80.3072 63.5551 77.4162 59.5829 75.3603C55.7431 73.3045 50.0496 72.2765 42.5024 72.2765H17.0804V58.9776H42.5024C47.9311 58.9776 52.2343 58.2709 55.4121 56.8575C58.7222 55.4441 61.1717 53.6452 62.7606 51.4609C64.3495 49.148 65.3425 46.5782 65.7398 43.7514C66.2694 40.7961 66.5342 37.7765 66.5342 34.6927C66.4018 29.0391 65.4749 24.8631 63.7537 22.1648C62.0324 19.338 59.1194 17.4749 55.0148 16.5754C51.0426 15.5475 45.5478 15.0335 38.5302 15.0335C32.0423 15.0335 25.753 15.2263 19.6623 15.6117C13.7041 15.8687 8.4078 16.1899 3.77358 16.5754L2.38331 3.46926C9.13604 2.31284 15.6239 1.47765 21.847 0.96368C28.2026 0.321222 34.5581 0 40.9136 0Z" fill="#FFEFF2"/>
</svg>
