<svg width="268" height="59" viewBox="0 0 268 59" fill="none" xmlns="http://www.w3.org/2000/svg">
<path d="M63.4701 25.3385C63.8629 25.3385 63.8629 25.733 63.6769 25.9198L59.0249 30.9855L63.4701 38.3348C63.6355 38.6047 63.5528 38.9992 63.16 38.9992H60.6376C60.1414 38.9992 59.8726 38.7708 59.6038 38.3348C59.6038 38.3348 57.7637 35.2207 56.6473 33.3522L55.3654 34.7017V38.3971C55.3654 38.8746 55.138 38.9992 54.7865 38.9992H52.7397C52.3468 38.9992 52.1401 38.8746 52.1401 38.3971V25.9406C52.1401 25.4631 52.3468 25.3385 52.7397 25.3385H54.7865C55.138 25.3385 55.3654 25.4631 55.3654 25.9406V30.5703L59.6452 25.8368C60.0587 25.38 60.2034 25.3385 60.6789 25.3385H63.4701Z" fill="white"/>
<path d="M70.6092 25.3385C74.1653 25.3385 76.0261 27.29 76.0261 30.155C76.0261 33.0408 74.124 34.9508 70.5885 34.9508H68.6037V38.3971C68.6037 38.8746 68.3763 38.9992 68.0041 38.9992H65.9573C65.5851 38.9992 65.3577 38.8746 65.3577 38.3971V25.9406C65.3577 25.5669 65.4817 25.3385 65.9573 25.3385H70.6092ZM70.5885 32.1481C72.2012 32.1481 72.9041 31.2554 72.9041 30.2173C72.9041 29.1378 72.2012 28.2658 70.5885 28.2658H68.6037V32.1481H70.5885Z" fill="white"/>
<path d="M88.6622 38.4179C88.7656 38.667 88.7656 38.9992 88.3107 38.9992H86.1398C85.685 38.9992 85.5196 38.8746 85.3542 38.3764L84.7753 36.7363H79.7099L79.1309 38.3764C78.9655 38.8746 78.8001 38.9992 78.3453 38.9992H76.1744C75.7195 38.9992 75.7195 38.667 75.8229 38.4179L80.4128 25.9821C80.5782 25.5461 80.8056 25.3385 81.2605 25.3385H83.2453C83.7002 25.3385 83.9069 25.5461 84.093 25.9821L88.6622 38.4179ZM80.7023 33.8297H83.8035L82.2529 29.2416L80.7023 33.8297Z" fill="white"/>
<path d="M100.06 36.0927C100.535 36.0927 100.66 36.321 100.66 36.6947V38.3971C100.66 38.7708 100.535 38.9992 100.06 38.9992H90.7974C90.3219 38.9992 90.1978 38.7708 90.1978 38.3971V25.9406C90.1978 25.5669 90.3219 25.3385 90.7974 25.3385H99.7085C100.184 25.3385 100.308 25.5669 100.308 25.9406V27.6637C100.308 28.0374 100.184 28.2658 99.7085 28.2658H93.4645V30.5287H99.0055C99.481 30.5287 99.6051 30.7571 99.6051 31.1308V32.7502C99.6051 33.1239 99.481 33.3522 99.0055 33.3522H93.4645V36.0927H100.06Z" fill="white"/>
<path d="M112.547 31.9197C112.712 31.982 114.449 32.7709 114.449 35.0131C114.449 37.6497 112.402 38.9992 109.528 38.9992H103.45C102.974 38.9992 102.85 38.7708 102.85 38.3971V25.9198C102.85 25.5461 102.974 25.3178 103.45 25.3178H109.239C112.609 25.3178 114.056 27.124 114.056 29.0755C114.056 31.1723 112.733 31.8367 112.547 31.9197ZM109.57 36.0511C110.583 36.0511 111.162 35.6359 111.162 34.7017C111.162 33.7259 110.438 33.4353 109.446 33.4353H108.97C108.494 33.4353 108.37 33.2069 108.37 32.8332V31.2554C108.37 30.8817 108.494 30.6533 108.97 30.6533H109.239C110.438 30.6533 110.955 30.2173 110.955 29.4077C110.955 28.4734 110.314 28.245 109.239 28.245H106.096V36.0511H109.57Z" fill="white"/>
<path d="M128.032 38.4179C128.136 38.667 128.136 38.9992 127.681 38.9992H125.51C125.055 38.9992 124.89 38.8746 124.724 38.3764L124.145 36.7363H119.08L118.501 38.3764C118.336 38.8746 118.17 38.9992 117.715 38.9992H115.545C115.09 38.9992 115.09 38.667 115.193 38.4179L119.783 25.9821C119.948 25.5461 120.176 25.3385 120.631 25.3385H122.615C123.07 25.3385 123.277 25.5461 123.463 25.9821L128.032 38.4179ZM120.072 33.8297H123.174L121.623 29.2416L120.072 33.8297Z" fill="white"/>
<path d="M128.927 38.3348L131.842 34.0789C130.56 33.6429 128.968 32.1273 128.968 29.9474C128.968 28.6187 129.403 27.4354 130.168 26.688C131.036 25.816 132.028 25.3593 134.282 25.3593H139.492C139.968 25.3593 140.071 25.5876 140.071 25.9613V38.3971C140.071 38.8746 139.864 38.9992 139.492 38.9992H137.445C137.073 38.9992 136.846 38.8746 136.846 38.3971V28.2658H134.096C133.021 28.2658 132.194 28.9509 132.194 30.0305C132.194 31.0062 133.145 31.7121 134.158 31.7121H134.571C135.047 31.7121 135.171 31.9405 135.171 32.3142V33.9751C135.171 34.5564 135.13 34.7847 134.944 35.0339L132.711 38.3764C132.421 38.8124 132.173 38.9992 131.677 38.9992H129.237C128.844 38.9992 128.741 38.6255 128.927 38.3348Z" fill="white"/>
<path d="M158.611 34.9508C158.611 37.629 155.799 39.3106 153.236 39.3106C150.775 39.3106 147.695 37.8781 147.695 34.6186V29.7191C147.695 26.4596 150.775 25.0271 153.236 25.0271C155.799 25.0271 158.342 26.335 158.611 28.9717C158.611 29.4699 158.446 29.5737 157.97 29.5737H155.985C155.551 29.5737 155.531 29.1793 155.365 28.9302C154.931 28.245 154.352 27.9336 153.236 27.9336C151.871 27.9336 150.941 28.7018 150.941 30.0097V34.328C150.941 35.6567 151.871 36.4041 153.236 36.4041C154.352 36.4041 155.241 35.9889 155.407 34.9923C155.469 34.5771 155.51 34.2449 155.965 34.2449H157.991C158.446 34.2449 158.611 34.4526 158.611 34.9508Z" fill="white"/>
<path d="M170.083 25.3385C170.558 25.3385 170.682 25.5669 170.682 25.9406V27.6637C170.682 28.0374 170.558 28.2658 170.083 28.2658H166.919V38.3971C166.919 38.8746 166.692 38.9992 166.32 38.9992H164.273C163.901 38.9992 163.673 38.8746 163.673 38.3971V28.2658H160.489C160.014 28.2658 159.89 28.0374 159.89 27.6637V25.9406C159.89 25.5669 160.014 25.3385 160.489 25.3385H170.083Z" fill="white"/>
<path d="M183.076 38.4179C183.18 38.667 183.18 38.9992 182.725 38.9992H180.554C180.099 38.9992 179.934 38.8746 179.768 38.3764L179.189 36.7363H174.124L173.545 38.3764C173.379 38.8746 173.214 38.9992 172.759 38.9992H170.588C170.133 38.9992 170.133 38.667 170.237 38.4179L174.827 25.9821C174.992 25.5461 175.22 25.3385 175.674 25.3385H177.659C178.114 25.3385 178.321 25.5461 178.507 25.9821L183.076 38.4179ZM175.116 33.8297H178.217L176.667 29.2416L175.116 33.8297Z" fill="white"/>
<path d="M195.115 25.3385C195.487 25.3385 195.714 25.4631 195.714 25.9406V38.3971C195.714 38.8746 195.487 38.9992 195.115 38.9992H193.068C192.696 38.9992 192.468 38.8746 192.468 38.3971V33.7052H187.858V38.3971C187.858 38.8746 187.651 38.9992 187.258 38.9992H185.211C184.839 38.9992 184.612 38.8746 184.612 38.3971V25.9406C184.612 25.4631 184.839 25.3385 185.211 25.3385H187.258C187.651 25.3385 187.858 25.4631 187.858 25.9406V30.6325H192.468V25.9406C192.468 25.4631 192.696 25.3385 193.068 25.3385H195.115Z" fill="white"/>
<path d="M199.034 38.9992C198.662 38.9992 198.435 38.8746 198.435 38.3971V25.9406C198.435 25.4631 198.662 25.3385 199.034 25.3385H201.081C201.453 25.3385 201.681 25.4631 201.681 25.9406V36.2795H206.002V25.9406C206.002 25.4631 206.209 25.3385 206.601 25.3385H208.648C209.02 25.3385 209.248 25.4631 209.248 25.9406V36.1342H210.24C210.716 36.1342 210.84 36.3626 210.84 36.7363V40.3071C210.84 40.7846 210.612 40.9092 210.24 40.9092H208.545C208.173 40.9092 207.945 40.7846 207.945 40.3071V38.9992H199.034Z" fill="white"/>
<path d="M213.323 25.3385H215.308C215.68 25.3385 215.907 25.4631 215.907 25.9406V33.1446L220.29 26.0444C220.559 25.6292 220.704 25.3385 221.221 25.3385H223.164C223.64 25.3385 223.764 25.5669 223.764 25.9406V38.3971C223.764 38.8746 223.536 38.9992 223.164 38.9992H221.117C220.745 38.9992 220.518 38.8746 220.518 38.3971V31.1723L216.135 38.2933C215.866 38.7085 215.721 38.9992 215.204 38.9992H213.323C212.847 38.9992 212.723 38.7708 212.723 38.3971V25.9406C212.723 25.4631 212.951 25.3385 213.323 25.3385Z" fill="white"/>
<path d="M225.845 38.3348L228.76 34.0789C227.478 33.6429 225.886 32.1273 225.886 29.9474C225.886 28.6187 226.32 27.4354 227.085 26.688C227.954 25.816 228.946 25.3593 231.2 25.3593H236.41C236.885 25.3593 236.989 25.5876 236.989 25.9613V38.3971C236.989 38.8746 236.782 38.9992 236.41 38.9992H234.363C233.991 38.9992 233.763 38.8746 233.763 38.3971V28.2658H231.013C229.938 28.2658 229.111 28.9509 229.111 30.0305C229.111 31.0062 230.062 31.7121 231.076 31.7121H231.489C231.965 31.7121 232.089 31.9405 232.089 32.3142V33.9751C232.089 34.5564 232.047 34.7847 231.861 35.0339L229.628 38.3764C229.339 38.8124 229.091 38.9992 228.594 38.9992H226.155C225.762 38.9992 225.659 38.6255 225.845 38.3348Z" fill="white"/>
<path d="M62.6431 44.946C63.0152 44.946 63.2427 45.0706 63.2427 45.5481V58.0047C63.2427 58.4822 63.0152 58.6067 62.6431 58.6067H60.5962C60.2241 58.6067 59.9967 58.4822 59.9967 58.0047V47.8526H55.3861V58.0047C55.3861 58.4822 55.1793 58.6067 54.7865 58.6067H52.7397C52.3675 58.6067 52.1401 58.4822 52.1401 58.0047V45.5481C52.1401 45.0706 52.3675 44.946 52.7397 44.946H62.6431Z" fill="white"/>
<path d="M75.8457 55.7002C76.3212 55.7002 76.4453 55.9286 76.4453 56.3023V58.0047C76.4453 58.3784 76.3212 58.6067 75.8457 58.6067H66.5832C66.1076 58.6067 65.9836 58.3784 65.9836 58.0047V45.5481C65.9836 45.1744 66.1076 44.946 66.5832 44.946H75.4942C75.9697 44.946 76.0938 45.1744 76.0938 45.5481V47.2713C76.0938 47.645 75.9697 47.8733 75.4942 47.8733H69.2503V50.1363H74.7912C75.2668 50.1363 75.3908 50.3646 75.3908 50.7383V52.3577C75.3908 52.7314 75.2668 52.9598 74.7912 52.9598H69.2503V55.7002H75.8457Z" fill="white"/>
<path d="M83.8874 44.946C87.4435 44.946 89.3043 46.8976 89.3043 49.7626C89.3043 52.6483 87.4022 54.5584 83.8667 54.5584H81.8819V58.0047C81.8819 58.4822 81.6545 58.6067 81.2823 58.6067H79.2355C78.8633 58.6067 78.6359 58.4822 78.6359 58.0047V45.5481C78.6359 45.1744 78.7599 44.946 79.2355 44.946H83.8874ZM83.8667 51.7556C85.4794 51.7556 86.1823 50.8629 86.1823 49.8249C86.1823 48.7453 85.4794 47.8733 83.8667 47.8733H81.8819V51.7556H83.8667Z" fill="white"/>
<path d="M101.17 55.7002C101.646 55.7002 101.77 55.9286 101.77 56.3023V58.0047C101.77 58.3784 101.646 58.6067 101.17 58.6067H91.9079C91.4324 58.6067 91.3083 58.3784 91.3083 58.0047V45.5481C91.3083 45.1744 91.4324 44.946 91.9079 44.946H100.819C101.294 44.946 101.419 45.1744 101.419 45.5481V47.2713C101.419 47.645 101.294 47.8733 100.819 47.8733H94.575V50.1363H100.116C100.592 50.1363 100.716 50.3646 100.716 50.7383V52.3577C100.716 52.7314 100.592 52.9598 100.116 52.9598H94.575V55.7002H101.17Z" fill="white"/>
<path d="M104.519 54.5999L105.263 45.5481C105.263 45.0706 105.491 44.946 105.863 44.946H114.112C114.484 44.946 114.712 45.0706 114.712 45.5481V58.0047C114.712 58.4822 114.484 58.6067 114.112 58.6067H112.065C111.693 58.6067 111.466 58.4822 111.466 58.0047V47.8526H108.158L107.703 54.6206C107.475 57.9839 106.752 58.7521 103.526 58.6898C102.989 58.6898 102.906 58.5652 102.906 58.1085V56.5514C102.906 56.1985 102.989 55.9909 103.361 55.9909C104.333 55.9909 104.457 55.4096 104.519 54.5999Z" fill="white"/>
<path d="M118.081 44.946H120.066C120.438 44.946 120.666 45.0706 120.666 45.5481V52.7522L125.049 45.6519C125.317 45.2367 125.462 44.946 125.979 44.946H127.923C128.398 44.946 128.522 45.1744 128.522 45.5481V58.0047C128.522 58.4822 128.295 58.6067 127.923 58.6067H125.876C125.504 58.6067 125.276 58.4822 125.276 58.0047V50.7799L120.893 57.9009C120.624 58.3161 120.479 58.6067 119.963 58.6067H118.081C117.606 58.6067 117.482 58.3784 117.482 58.0047V45.5481C117.482 45.0706 117.709 44.946 118.081 44.946Z" fill="white"/>
<path d="M140.941 51.5273C141.106 51.5895 142.843 52.3785 142.843 54.6206C142.843 57.2573 140.796 58.6067 137.922 58.6067H131.843C131.368 58.6067 131.244 58.3784 131.244 58.0047V45.5274C131.244 45.1537 131.368 44.9253 131.843 44.9253H137.632C141.003 44.9253 142.45 46.7315 142.45 48.683C142.45 50.7799 141.127 51.4442 140.941 51.5273ZM137.963 55.6587C138.976 55.6587 139.555 55.2435 139.555 54.3092C139.555 53.3335 138.832 53.0428 137.839 53.0428H137.364C136.888 53.0428 136.764 52.8144 136.764 52.4407V50.8629C136.764 50.4892 136.888 50.2608 137.364 50.2608H137.632C138.832 50.2608 139.349 49.8249 139.349 49.0152C139.349 48.0809 138.708 47.8526 137.632 47.8526H134.49V55.6587H137.963Z" fill="white"/>
<path d="M156.426 58.0254C156.529 58.2746 156.529 58.6067 156.075 58.6067H153.904C153.449 58.6067 153.283 58.4822 153.118 57.9839L152.539 56.3438H147.474L146.895 57.9839C146.729 58.4822 146.564 58.6067 146.109 58.6067H143.938C143.483 58.6067 143.483 58.2746 143.587 58.0254L148.177 45.5896C148.342 45.1537 148.57 44.946 149.024 44.946H151.009C151.464 44.946 151.671 45.1537 151.857 45.5896L156.426 58.0254ZM148.466 53.4373H151.567L150.017 48.8491L148.466 53.4373Z" fill="white"/>
<path d="M168.465 44.946C168.837 44.946 169.064 45.0706 169.064 45.5481V58.0047C169.064 58.4822 168.837 58.6067 168.465 58.6067H166.418C166.046 58.6067 165.818 58.4822 165.818 58.0047V53.3127H161.208V58.0047C161.208 58.4822 161.001 58.6067 160.608 58.6067H158.561C158.189 58.6067 157.962 58.4822 157.962 58.0047V45.5481C157.962 45.0706 158.189 44.946 158.561 44.946H160.608C161.001 44.946 161.208 45.0706 161.208 45.5481V50.2401H165.818V45.5481C165.818 45.0706 166.046 44.946 166.418 44.946H168.465Z" fill="white"/>
<path d="M172.426 44.946H174.41C174.782 44.946 175.01 45.0706 175.01 45.5481V52.7522L179.393 45.6519C179.662 45.2367 179.807 44.946 180.323 44.946H182.267C182.742 44.946 182.867 45.1744 182.867 45.5481V58.0047C182.867 58.4822 182.639 58.6067 182.267 58.6067H180.22C179.848 58.6067 179.62 58.4822 179.62 58.0047V50.7799L175.237 57.9009C174.969 58.3161 174.824 58.6067 174.307 58.6067H172.426C171.95 58.6067 171.826 58.3784 171.826 58.0047V45.5481C171.826 45.0706 172.053 44.946 172.426 44.946Z" fill="white"/>
<path d="M184.947 57.9424L187.862 53.6864C186.581 53.2504 184.989 51.7349 184.989 49.555C184.989 48.2263 185.423 47.0429 186.188 46.2955C187.056 45.4235 188.049 44.9668 190.302 44.9668H195.512C195.988 44.9668 196.091 45.1952 196.091 45.5689V58.0047C196.091 58.4822 195.884 58.6067 195.512 58.6067H193.465C193.093 58.6067 192.866 58.4822 192.866 58.0047V47.8733H190.116C189.041 47.8733 188.214 48.5584 188.214 49.638C188.214 50.6138 189.165 51.3197 190.178 51.3197H190.592C191.067 51.3197 191.191 51.548 191.191 51.9217V53.5826C191.191 54.1639 191.15 54.3923 190.964 54.6414L188.731 57.9839C188.441 58.4199 188.193 58.6067 187.697 58.6067H185.257C184.865 58.6067 184.761 58.233 184.947 57.9424Z" fill="white"/>
<path d="M215.479 44.946C215.872 44.946 215.872 45.3405 215.686 45.5274L211.034 50.593L215.479 57.9424C215.645 58.2123 215.562 58.6067 215.169 58.6067H212.647C212.15 58.6067 211.882 58.3784 211.613 57.9424C211.613 57.9424 209.773 54.8282 208.656 52.9598L207.374 54.3092V58.0047C207.374 58.4822 207.147 58.6067 206.796 58.6067H204.749C204.356 58.6067 204.149 58.4822 204.149 58.0047V45.5481C204.149 45.0706 204.356 44.946 204.749 44.946H206.796C207.147 44.946 207.374 45.0706 207.374 45.5481V50.1778L211.654 45.4443C212.068 44.9876 212.212 44.946 212.688 44.946H215.479Z" fill="white"/>
<path d="M222.618 44.946C226.174 44.946 228.035 46.8976 228.035 49.7626C228.035 52.6483 226.133 54.5584 222.598 54.5584H220.613V58.0047C220.613 58.4822 220.385 58.6067 220.013 58.6067H217.966C217.594 58.6067 217.367 58.4822 217.367 58.0047V45.5481C217.367 45.1744 217.491 44.946 217.966 44.946H222.618ZM222.598 51.7556C224.21 51.7556 224.913 50.8629 224.913 49.8249C224.913 48.7453 224.21 47.8733 222.598 47.8733H220.613V51.7556H222.598Z" fill="white"/>
<path d="M240.728 49.3266V54.2262C240.728 57.5064 237.627 58.9181 235.167 58.9181C232.706 58.9181 229.646 57.5064 229.646 54.2262V49.3266C229.646 46.0464 232.706 44.6346 235.167 44.6346C237.627 44.6346 240.728 46.0464 240.728 49.3266ZM237.482 53.9355V49.6173C237.482 48.2886 236.531 47.5204 235.167 47.5204C233.823 47.5204 232.872 48.2886 232.872 49.6173V53.9355C232.872 55.2642 233.823 56.0324 235.167 56.0324C236.531 56.0324 237.482 55.2642 237.482 53.9355Z" fill="white"/>
<path d="M252.752 51.5273C252.917 51.5895 254.654 52.3785 254.654 54.6206C254.654 57.2573 252.607 58.6067 249.733 58.6067H243.654C243.179 58.6067 243.055 58.3784 243.055 58.0047V45.5274C243.055 45.1537 243.179 44.9253 243.654 44.9253H249.443C252.814 44.9253 254.261 46.7315 254.261 48.683C254.261 50.7799 252.938 51.4442 252.752 51.5273ZM249.774 55.6587C250.787 55.6587 251.366 55.2435 251.366 54.3092C251.366 53.3335 250.643 53.0428 249.65 53.0428H249.175C248.699 53.0428 248.575 52.8144 248.575 52.4407V50.8629C248.575 50.4892 248.699 50.2608 249.175 50.2608H249.443C250.643 50.2608 251.16 49.8249 251.16 49.0152C251.16 48.0809 250.519 47.8526 249.443 47.8526H246.301V55.6587H249.774Z" fill="white"/>
<path d="M257.559 44.946H259.544C259.916 44.946 260.143 45.0706 260.143 45.5481V52.7522L264.527 45.6519C264.795 45.2367 264.94 44.946 265.457 44.946H267.4C267.876 44.946 268 45.1744 268 45.5481V58.0047C268 58.4822 267.773 58.6067 267.4 58.6067H265.354C264.981 58.6067 264.754 58.4822 264.754 58.0047V50.7799L260.371 57.9009C260.102 58.3161 259.957 58.6067 259.44 58.6067H257.559C257.083 58.6067 256.959 58.3784 256.959 58.0047V45.5481C256.959 45.0706 257.187 44.946 257.559 44.946Z" fill="white"/>
<path d="M36.8747 35.4551C34.2918 35.4551 31.9503 36.6102 30.502 38.3873C29.0536 36.6102 26.7363 35.4551 24.1293 35.4551C19.736 35.4551 16.1635 38.7427 16.1635 42.83C16.1635 44.4071 16.429 45.851 16.9118 47.1838C19.1808 53.7812 26.157 57.713 29.6088 58.8015C30.0916 58.957 30.8882 58.957 31.3951 58.8015C34.847 57.713 41.8231 53.7812 44.0922 47.1838C44.575 45.8288 44.8405 44.3849 44.8405 42.83C44.8405 38.7427 41.2679 35.4551 36.8747 35.4551Z" fill="white"/>
<path fill-rule="evenodd" clip-rule="evenodd" d="M19.1994 56.8327C11.2811 56.1342 2.91261 51.2357 0.599924 41.2946C-2.02128 30.0012 4.41088 20.7611 10.9022 11.436C11.3279 10.8244 11.7539 10.2125 12.1776 9.59962C13.8753 7.1438 15.8558 4.31746 17.5261 1.94392C19.3255 -0.613016 23.0976 -0.661071 24.9193 1.88018C26.6301 4.26676 28.6226 7.12179 30.2018 9.59962C31.0469 10.9257 31.915 12.2394 32.7797 13.548C36.5495 19.2532 40.2547 24.8606 41.7121 30.9679C40.9119 30.7818 40.0766 30.6832 39.2177 30.6832C35.7774 30.6832 32.6586 32.2906 30.7295 34.7636C28.8003 32.2906 25.7137 30.6832 22.2413 30.6832C16.3895 30.6832 11.631 35.2582 11.631 40.946C11.631 43.1407 11.9846 45.15 12.6277 47.0047C13.9378 50.9844 16.4261 54.2671 19.1994 56.8327Z" fill="white"/>
</svg>
