<svg width="19" height="24" viewBox="0 0 19 24" fill="none" xmlns="http://www.w3.org/2000/svg">
<path d="M9.5282 12.4299C9.93793 12.4299 10.3436 12.3492 10.7222 12.1924C11.1007 12.0357 11.4447 11.8058 11.7344 11.5161C12.0241 11.2264 12.2539 10.8824 12.4107 10.5039C12.5675 10.1254 12.6482 9.71967 12.6482 9.30994C12.6482 8.90022 12.5675 8.49451 12.4107 8.11597C12.2539 7.73743 12.0241 7.39349 11.7344 7.10377C11.4447 6.81405 11.1007 6.58423 10.7222 6.42744C10.3436 6.27064 9.93793 6.18994 9.5282 6.18994C8.70073 6.18994 7.90714 6.51865 7.32203 7.10377C6.73692 7.68888 6.4082 8.48247 6.4082 9.30994C6.4082 10.1374 6.73692 10.931 7.32203 11.5161C7.90714 12.1012 8.70073 12.4299 9.5282 12.4299Z" stroke="#162D4E" stroke-width="1.5"/>
<path d="M1.14821 7.49C3.11821 -1.17 15.9482 -1.16 17.9082 7.5C19.0582 12.58 13.1282 19.54 13.1282 19.54C13.1282 19.54 10.873 22.5 9.52825 22.5C8.1835 22.5 5.91821 19.54 5.91821 19.54C5.91821 19.54 -0.00179292 12.57 1.14821 7.49Z" stroke="#162D4E" stroke-width="1.5"/>
</svg>
