<svg width="41" height="43" viewBox="0 0 41 43" fill="none" xmlns="http://www.w3.org/2000/svg">
<path d="M29.6439 5.41382C33.561 5.41382 36.7108 8.58382 36.7108 12.4807C36.7108 16.2968 33.6821 19.4062 29.9064 19.5476C29.732 19.5274 29.5558 19.5274 29.3814 19.5476M33.5408 37.7196C34.9945 37.4167 36.3675 36.8311 37.4982 35.9629C40.648 33.6006 40.648 29.7037 37.4982 27.3413C36.3877 26.4933 35.0349 25.928 33.6013 25.6049M15.0053 19.2851C14.8034 19.2649 14.5611 19.2649 14.339 19.2851C12.0215 19.2064 9.82561 18.2288 8.21635 16.5592C6.6071 14.8897 5.71086 12.6593 5.71744 10.3404C5.71744 5.39363 9.71528 1.3756 14.6823 1.3756C17.0572 1.33276 19.3519 2.23512 21.0616 3.88417C22.7712 5.53322 23.7557 7.79388 23.7986 10.1688C23.8414 12.5438 22.939 14.8385 21.29 16.5481C19.6409 18.2577 17.3803 19.2423 15.0053 19.2851ZM4.9098 26.7356C0.0235565 30.0066 0.0235565 35.337 4.9098 38.5878C10.4623 42.3029 19.5685 42.3029 25.1211 38.5878C30.0073 35.3168 30.0073 29.9864 25.1211 26.7356C19.5887 23.0406 10.4825 23.0406 4.9098 26.7356Z" stroke="#162D4E" stroke-width="2" stroke-linecap="round" stroke-linejoin="round"/>
</svg>
