<svg width="42" height="43" viewBox="0 0 42 43" fill="none" xmlns="http://www.w3.org/2000/svg">
<path d="M30.9875 26.0478C33.7323 26.5086 36.7576 26.0277 38.8813 24.6052C41.7062 22.7219 41.7062 19.6365 38.8813 17.7532C36.7375 16.3308 33.6722 15.8499 30.9274 16.3308M11.0125 26.0478C8.26772 26.5086 5.24242 26.0277 3.11871 24.6052C0.293764 22.7219 0.293764 19.6365 3.11871 17.7532C5.26246 16.3308 8.32782 15.8499 11.0726 16.3308M33.0511 11.4622C32.925 11.4422 32.7965 11.4422 32.6704 11.4622C31.3333 11.4139 30.0675 10.8476 29.1403 9.883C28.2131 8.91842 27.6972 7.63113 27.7017 6.29319C27.7017 3.42818 30.0058 1.12415 32.8708 1.12415C34.2417 1.12415 35.5565 1.66874 36.5258 2.63812C37.4952 3.60751 38.0398 4.92227 38.0398 6.29319C38.0361 7.63208 37.5149 8.9177 36.5851 9.88109C35.6553 10.8445 34.389 11.411 33.0511 11.4622ZM8.94891 11.4622C9.06912 11.4422 9.20937 11.4422 9.32958 11.4622C10.6667 11.4139 11.9325 10.8476 12.8597 9.883C13.7869 8.91842 14.3028 7.63113 14.2983 6.29319C14.2983 3.42818 11.9942 1.12415 9.12923 1.12415C7.75831 1.12415 6.44354 1.66874 5.47416 2.63812C4.50477 3.60751 3.96018 4.92227 3.96018 6.29319C3.98022 9.0981 6.18407 11.3621 8.94891 11.4622ZM21.0301 26.4284C20.904 26.4084 20.7755 26.4084 20.6494 26.4284C19.3123 26.3801 18.0464 25.8138 17.1192 24.8492C16.192 23.8846 15.6762 22.5973 15.6807 21.2594C15.6807 18.3944 17.9847 16.0903 20.8497 16.0903C22.2207 16.0903 23.5354 16.6349 24.5048 17.6043C25.4742 18.5737 26.0188 19.8885 26.0188 21.2594C25.9987 24.0643 23.7949 26.3483 21.0301 26.4284ZM15.1999 32.7395C12.3749 34.6228 12.3749 37.7082 15.1999 39.5915C18.4055 41.7352 23.6546 41.7352 26.8603 39.5915C29.6852 37.7082 29.6852 34.6228 26.8603 32.7395C23.6747 30.6158 18.4055 30.6158 15.1999 32.7395Z" stroke="#162D4E" stroke-width="2" stroke-linecap="round" stroke-linejoin="round"/>
</svg>
