<svg width="43" height="43" viewBox="0 0 43 43" fill="none" xmlns="http://www.w3.org/2000/svg">
<path d="M33.5259 40.6141C31.7659 41.1341 29.6858 41.3741 27.2458 41.3741H15.2458C12.8058 41.3741 10.7258 41.1341 8.96582 40.6141C9.40582 35.4141 14.7458 31.3141 21.2458 31.3141C27.7458 31.3141 33.0859 35.4141 33.5259 40.6141Z" stroke="#162D4E" stroke-width="2" stroke-linecap="round" stroke-linejoin="round"/>
<path d="M27.2452 1.37415H15.2451C5.24512 1.37415 1.24512 5.37415 1.24512 15.3742V27.3742C1.24512 34.9342 3.52512 39.0742 8.96513 40.6142C9.40513 35.4142 14.7451 31.3142 21.2451 31.3142C27.7452 31.3142 33.0852 35.4142 33.5252 40.6142C38.9652 39.0742 41.2452 34.9342 41.2452 27.3742V15.3742C41.2452 5.37415 37.2452 1.37415 27.2452 1.37415ZM21.2451 25.7142C17.2851 25.7142 14.0851 22.4942 14.0851 18.5342C14.0851 14.5742 17.2851 11.3742 21.2451 11.3742C25.2052 11.3742 28.4052 14.5742 28.4052 18.5342C28.4052 22.4942 25.2052 25.7142 21.2451 25.7142Z" stroke="#162D4E" stroke-width="2" stroke-linecap="round" stroke-linejoin="round"/>
<path d="M28.405 18.5342C28.405 22.4942 25.205 25.7142 21.245 25.7142C17.285 25.7142 14.085 22.4942 14.085 18.5342C14.085 14.5741 17.285 11.3741 21.245 11.3741C25.205 11.3741 28.405 14.5741 28.405 18.5342Z" stroke="#162D4E" stroke-width="2" stroke-linecap="round" stroke-linejoin="round"/>
</svg>
