<svg width="334" height="250" viewBox="0 0 334 250" fill="none" xmlns="http://www.w3.org/2000/svg">
<g clip-path="url(#clip0_106_1010)">
<path d="M92.9806 189.256L74.1312 191.304L65.1107 185.159L59.8906 191.304L62.3988 204.269L65.2634 214.505L82.6615 205.675L96.6728 204.409L92.9806 189.256Z" fill="#FDB4B4"/>
<path d="M188.488 167.544L142.991 166.723L87.6523 190.07L95.0304 206.05L145.041 192.119L222.508 214.238L211.851 161.812L188.488 167.544Z" fill="#162D4E"/>
<path d="M63.691 190.745L72.7369 190.038L61.2337 165.756C61.2337 165.756 55.9055 163.873 55.0843 169.732C54.2631 175.585 61.2592 215.237 63.309 215.237C65.3588 215.237 72.234 211.229 72.234 211.229L62.0549 191.972L63.6973 190.745L63.691 190.745Z" fill="#162D4E"/>
<path d="M0 214.454C0 214.874 0.337393 215.211 0.757543 215.211H333.242C333.663 215.211 334 214.874 334 214.454C334 214.034 333.663 213.697 333.242 213.697H0.757543C0.337393 213.697 0 214.034 0 214.454Z" fill="#162D4E"/>
<path d="M220.61 112.924L225.124 97.7703L238.238 97.3568L243.566 116.2L220.61 112.924Z" fill="#FDB4B4"/>
<path opacity="0.1" d="M220.61 112.924L225.124 97.7703L238.238 97.3568L243.566 116.2L220.61 112.924Z" fill="black"/>
<path d="M240.746 110.811L219.433 109.991L212.825 123.573L202.627 183.721L256.12 195.802C256.12 195.802 259.398 128.624 252.02 119.202C244.642 109.781 240.746 110.805 240.746 110.805V110.811Z" fill="white"/>
<path d="M178.322 63.7105C177.43 58.9711 174.267 55.5804 171.243 56.1466C168.219 56.7128 166.494 61.0132 167.385 65.7589C167.716 67.661 168.493 69.4486 169.658 70.9881L173.675 91.0334L181.6 89.4239L178.086 69.4104C178.615 67.5529 178.691 65.5999 178.309 63.7105L178.322 63.7105Z" fill="#FDB4B4"/>
<path d="M237.557 116.27L194.027 107.701L181.791 70.9308L168.085 74.1752L181.836 128.49L231.108 134.966L237.557 116.27Z" fill="white"/>
<path d="M171.262 4.81515C171.217 4.85968 171.179 4.89785 171.135 4.94238C164.546 -1.5973 153.927 -1.65456 147.262 4.81515C140.578 11.3039 140.349 21.9596 146.753 28.7283L146.912 28.8937L170.498 53.163L194.949 29.4344L194.879 29.3644C194.918 29.3262 194.962 29.2881 195.007 29.2499C201.761 22.6975 201.914 11.9147 195.357 5.1714C188.8 -1.57822 178.01 -1.73089 171.262 4.82151V4.81515Z" fill="#F6493E"/>
<path d="M177.093 125.176C177.017 125.252 176.941 125.335 176.864 125.411C164.724 113.375 145.175 113.267 132.901 125.176C120.59 137.129 120.169 156.755 131.965 169.217L132.258 169.529L175.699 214.225L220.725 170.521L220.598 170.394C220.674 170.324 220.751 170.254 220.827 170.184C233.26 158.116 233.553 138.262 221.476 125.831C209.4 113.407 189.532 113.114 177.093 125.182V125.176Z" fill="#F6493E"/>
<path d="M243.509 174.993C243.509 174.993 259.595 188.384 253.624 196.508C247.659 204.632 227.365 219.174 218.198 214.664C209.031 210.154 190.003 177.557 190.003 177.557L185.025 210.949L172 209.797C172 209.797 162.541 162.633 171.262 155.4C179.99 148.167 219.713 160.953 219.713 160.953L243.502 175L243.509 174.993Z" fill="#162D4E"/>
<path d="M175.253 205.363L171.523 216.948L163.75 227.832L169.708 236.745L188.647 224.283L188.583 217.87L185.611 213.869L183.51 206.197L175.253 205.363Z" fill="#FDB4B4"/>
<path d="M169.295 232.355L164.54 224.632L148.167 245.937C148.167 245.937 148.924 251.535 154.513 249.589C160.103 247.642 194.752 229.893 193.816 228.068C192.881 226.242 189.042 216.432 189.042 216.432L171.141 233.246L169.301 232.349L169.295 232.355Z" fill="#162D4E"/>
<path d="M179.347 174.885C174.541 175.362 170.893 178.225 171.199 181.278C171.504 184.332 175.642 186.425 180.448 185.948C182.371 185.782 184.223 185.159 185.859 184.135L206.186 181.864L205.262 173.835L185.006 175.61C183.205 174.923 181.263 174.675 179.347 174.891L179.347 174.885Z" fill="#FDB4B4"/>
<path d="M236.856 120.443L224.557 163.04L186.846 172.048L188.896 185.98L244.234 176.965L254.935 128.471L236.856 120.443Z" fill="white"/>
<path d="M230.013 102.306C239.632 102.306 247.43 94.5135 247.43 84.9008C247.43 75.2882 239.632 67.4956 230.013 67.4956C220.394 67.4956 212.596 75.2882 212.596 84.9008C212.596 94.5135 220.394 102.306 230.013 102.306Z" fill="#FDB4B4"/>
<path d="M231.4 61.4966C230.898 61.7893 230.223 61.3439 230.057 60.7841C229.898 60.2243 230.083 59.6263 230.274 59.0792C230.586 58.1504 230.898 57.2217 231.216 56.2992C231.884 54.3271 232.591 52.2851 234.036 50.7838C236.213 48.519 239.676 47.9401 242.795 48.36C246.8 48.8944 250.746 51.0637 252.612 54.6452C254.471 58.2268 253.681 63.227 250.32 65.4599C255.113 70.9499 256.781 77.0697 256.52 84.3473C256.259 91.6313 248.315 98.3301 243.139 103.457C241.981 102.758 240.93 99.4752 241.567 98.2792C242.203 97.0896 241.293 95.7027 242.076 94.6085C242.859 93.5144 243.521 95.2574 242.725 94.1696C242.223 93.4826 244.183 91.8922 243.438 91.485C239.829 89.4875 238.626 84.9899 236.353 81.5419C233.616 77.3878 228.93 74.5696 223.978 74.1052C221.247 73.8508 218.363 74.3152 216.129 75.8992C213.888 77.4832 212.443 80.3141 212.958 83.0051C211.615 81.6437 210.947 79.6398 211.195 77.7441C211.45 75.8483 212.615 74.0925 214.27 73.1256C213.264 69.8048 214.123 65.9815 216.46 63.4115C218.796 60.8414 228.262 61.2803 231.668 61.9547L231.407 61.503L231.4 61.4966Z" fill="#162D4E"/>
<path d="M231.936 74.2007C236.449 74.6905 239.708 78.5965 242.458 82.2035C244.044 84.2838 245.705 86.5803 245.667 89.1949C245.629 91.8349 243.859 94.106 243.012 96.6125C241.631 100.709 242.974 105.576 246.265 108.381C243.019 108.998 239.505 106.562 238.944 103.305C238.289 99.5133 241.166 95.8554 240.829 92.0194C240.53 88.6414 237.869 86.0459 235.602 83.5204C233.336 80.9948 231.216 77.6487 232.254 74.4233L231.936 74.2071L231.936 74.2007Z" fill="#162D4E"/>
</g>
<defs>
<clipPath id="clip0_106_1010">
<rect width="334" height="250" fill="white"/>
</clipPath>
</defs>
</svg>
