<svg width="235" height="52" viewBox="0 0 235 52" fill="none" xmlns="http://www.w3.org/2000/svg">
<path d="M55.196 22.156C55.538 22.156 55.538 22.498 55.376 22.66L51.326 27.052L55.196 33.424C55.34 33.658 55.268 34 54.926 34H52.73C52.298 34 52.064 33.802 51.83 33.424C51.83 33.424 50.228 30.724 49.256 29.104L48.14 30.274V33.478C48.14 33.892 47.942 34 47.636 34H45.854C45.512 34 45.332 33.892 45.332 33.478V22.678C45.332 22.264 45.512 22.156 45.854 22.156H47.636C47.942 22.156 48.14 22.264 48.14 22.678V26.692L51.866 22.588C52.226 22.192 52.352 22.156 52.766 22.156H55.196ZM61.4113 22.156C64.5073 22.156 66.1273 23.848 66.1273 26.332C66.1273 28.834 64.4713 30.49 61.3933 30.49H59.6653V33.478C59.6653 33.892 59.4673 34 59.1433 34H57.3613C57.0373 34 56.8393 33.892 56.8393 33.478V22.678C56.8393 22.354 56.9473 22.156 57.3613 22.156H61.4113ZM61.3933 28.06C62.7973 28.06 63.4093 27.286 63.4093 26.386C63.4093 25.45 62.7973 24.694 61.3933 24.694H59.6653V28.06H61.3933ZM77.1284 33.496C77.2184 33.712 77.2184 34 76.8224 34H74.9324C74.5364 34 74.3924 33.892 74.2484 33.46L73.7444 32.038H69.3344L68.8304 33.46C68.6864 33.892 68.5424 34 68.1464 34H66.2564C65.8604 34 65.8604 33.712 65.9504 33.496L69.9464 22.714C70.0904 22.336 70.2884 22.156 70.6844 22.156H72.4124C72.8084 22.156 72.9884 22.336 73.1504 22.714L77.1284 33.496ZM70.1984 29.518H72.8984L71.5484 25.54L70.1984 29.518ZM87.0514 31.48C87.4654 31.48 87.5734 31.678 87.5734 32.002V33.478C87.5734 33.802 87.4654 34 87.0514 34H78.9874C78.5734 34 78.4654 33.802 78.4654 33.478V22.678C78.4654 22.354 78.5734 22.156 78.9874 22.156H86.7454C87.1594 22.156 87.2674 22.354 87.2674 22.678V24.172C87.2674 24.496 87.1594 24.694 86.7454 24.694H81.3094V26.656H86.1334C86.5474 26.656 86.6554 26.854 86.6554 27.178V28.582C86.6554 28.906 86.5474 29.104 86.1334 29.104H81.3094V31.48H87.0514ZM97.9225 27.862C98.0665 27.916 99.5785 28.6 99.5785 30.544C99.5785 32.83 97.7965 34 95.2945 34H90.0025C89.5885 34 89.4805 33.802 89.4805 33.478V22.66C89.4805 22.336 89.5885 22.138 90.0025 22.138H95.0425C97.9765 22.138 99.2365 23.704 99.2365 25.396C99.2365 27.214 98.0845 27.79 97.9225 27.862ZM95.3305 31.444C96.2125 31.444 96.7165 31.084 96.7165 30.274C96.7165 29.428 96.0865 29.176 95.2225 29.176H94.8085C94.3945 29.176 94.2865 28.978 94.2865 28.654V27.286C94.2865 26.962 94.3945 26.764 94.8085 26.764H95.0425C96.0865 26.764 96.5365 26.386 96.5365 25.684C96.5365 24.874 95.9785 24.676 95.0425 24.676H92.3065V31.444H95.3305ZM111.404 33.496C111.494 33.712 111.494 34 111.098 34H109.208C108.812 34 108.668 33.892 108.524 33.46L108.02 32.038H103.61L103.106 33.46C102.962 33.892 102.818 34 102.422 34H100.532C100.136 34 100.136 33.712 100.226 33.496L104.222 22.714C104.366 22.336 104.564 22.156 104.96 22.156H106.688C107.084 22.156 107.264 22.336 107.426 22.714L111.404 33.496ZM104.474 29.518H107.174L105.824 25.54L104.474 29.518ZM112.183 33.424L114.721 29.734C113.605 29.356 112.219 28.042 112.219 26.152C112.219 25 112.597 23.974 113.263 23.326C114.019 22.57 114.883 22.174 116.845 22.174H121.381C121.795 22.174 121.885 22.372 121.885 22.696V33.478C121.885 33.892 121.705 34 121.381 34H119.599C119.275 34 119.077 33.892 119.077 33.478V24.694H116.683C115.747 24.694 115.027 25.288 115.027 26.224C115.027 27.07 115.855 27.682 116.737 27.682H117.097C117.511 27.682 117.619 27.88 117.619 28.204V29.644C117.619 30.148 117.583 30.346 117.421 30.562L115.477 33.46C115.225 33.838 115.009 34 114.577 34H112.453C112.111 34 112.021 33.676 112.183 33.424ZM138.027 30.49C138.027 32.812 135.579 34.27 133.347 34.27C131.205 34.27 128.523 33.028 128.523 30.202V25.954C128.523 23.128 131.205 21.886 133.347 21.886C135.579 21.886 137.793 23.02 138.027 25.306C138.027 25.738 137.883 25.828 137.469 25.828H135.741C135.363 25.828 135.345 25.486 135.201 25.27C134.823 24.676 134.319 24.406 133.347 24.406C132.159 24.406 131.349 25.072 131.349 26.206V29.95C131.349 31.102 132.159 31.75 133.347 31.75C134.319 31.75 135.093 31.39 135.237 30.526C135.291 30.166 135.327 29.878 135.723 29.878H137.487C137.883 29.878 138.027 30.058 138.027 30.49ZM148.014 22.156C148.428 22.156 148.536 22.354 148.536 22.678V24.172C148.536 24.496 148.428 24.694 148.014 24.694H145.26V33.478C145.26 33.892 145.062 34 144.738 34H142.956C142.632 34 142.434 33.892 142.434 33.478V24.694H139.662C139.248 24.694 139.14 24.496 139.14 24.172V22.678C139.14 22.354 139.248 22.156 139.662 22.156H148.014ZM159.326 33.496C159.416 33.712 159.416 34 159.02 34H157.13C156.734 34 156.59 33.892 156.446 33.46L155.942 32.038H151.532L151.028 33.46C150.884 33.892 150.74 34 150.344 34H148.454C148.058 34 148.058 33.712 148.148 33.496L152.144 22.714C152.288 22.336 152.486 22.156 152.882 22.156H154.61C155.006 22.156 155.186 22.336 155.348 22.714L159.326 33.496ZM152.396 29.518H155.096L153.746 25.54L152.396 29.518ZM169.807 22.156C170.131 22.156 170.329 22.264 170.329 22.678V33.478C170.329 33.892 170.131 34 169.807 34H168.025C167.701 34 167.503 33.892 167.503 33.478V29.41H163.489V33.478C163.489 33.892 163.309 34 162.967 34H161.185C160.861 34 160.663 33.892 160.663 33.478V22.678C160.663 22.264 160.861 22.156 161.185 22.156H162.967C163.309 22.156 163.489 22.264 163.489 22.678V26.746H167.503V22.678C167.503 22.264 167.701 22.156 168.025 22.156H169.807ZM173.219 34C172.895 34 172.697 33.892 172.697 33.478V22.678C172.697 22.264 172.895 22.156 173.219 22.156H175.001C175.325 22.156 175.523 22.264 175.523 22.678V31.642H179.285V22.678C179.285 22.264 179.465 22.156 179.807 22.156H181.589C181.913 22.156 182.111 22.264 182.111 22.678V31.516H182.975C183.389 31.516 183.497 31.714 183.497 32.038V35.134C183.497 35.548 183.299 35.656 182.975 35.656H181.499C181.175 35.656 180.977 35.548 180.977 35.134V34H173.219ZM185.659 22.156H187.387C187.711 22.156 187.909 22.264 187.909 22.678V28.924L191.725 22.768C191.959 22.408 192.085 22.156 192.535 22.156H194.227C194.641 22.156 194.749 22.354 194.749 22.678V33.478C194.749 33.892 194.551 34 194.227 34H192.445C192.121 34 191.923 33.892 191.923 33.478V27.214L188.107 33.388C187.873 33.748 187.747 34 187.297 34H185.659C185.245 34 185.137 33.802 185.137 33.478V22.678C185.137 22.264 185.335 22.156 185.659 22.156ZM196.56 33.424L199.098 29.734C197.982 29.356 196.596 28.042 196.596 26.152C196.596 25 196.974 23.974 197.64 23.326C198.396 22.57 199.26 22.174 201.222 22.174H205.758C206.172 22.174 206.262 22.372 206.262 22.696V33.478C206.262 33.892 206.082 34 205.758 34H203.976C203.652 34 203.454 33.892 203.454 33.478V24.694H201.06C200.124 24.694 199.404 25.288 199.404 26.224C199.404 27.07 200.232 27.682 201.114 27.682H201.474C201.888 27.682 201.996 27.88 201.996 28.204V29.644C201.996 30.148 201.96 30.346 201.798 30.562L199.854 33.46C199.602 33.838 199.386 34 198.954 34H196.83C196.488 34 196.398 33.676 196.56 33.424ZM54.476 39.156C54.8 39.156 54.998 39.264 54.998 39.678V50.478C54.998 50.892 54.8 51 54.476 51H52.694C52.37 51 52.172 50.892 52.172 50.478V41.676H48.158V50.478C48.158 50.892 47.978 51 47.636 51H45.854C45.53 51 45.332 50.892 45.332 50.478V39.678C45.332 39.264 45.53 39.156 45.854 39.156H54.476ZM65.9703 48.48C66.3843 48.48 66.4923 48.678 66.4923 49.002V50.478C66.4923 50.802 66.3843 51 65.9703 51H57.9063C57.4923 51 57.3843 50.802 57.3843 50.478V39.678C57.3843 39.354 57.4923 39.156 57.9063 39.156H65.6643C66.0783 39.156 66.1863 39.354 66.1863 39.678V41.172C66.1863 41.496 66.0783 41.694 65.6643 41.694H60.2283V43.656H65.0523C65.4663 43.656 65.5743 43.854 65.5743 44.178V45.582C65.5743 45.906 65.4663 46.104 65.0523 46.104H60.2283V48.48H65.9703ZM72.9714 39.156C76.0674 39.156 77.6874 40.848 77.6874 43.332C77.6874 45.834 76.0314 47.49 72.9534 47.49H71.2254V50.478C71.2254 50.892 71.0274 51 70.7034 51H68.9214C68.5974 51 68.3994 50.892 68.3994 50.478V39.678C68.3994 39.354 68.5074 39.156 68.9214 39.156H72.9714ZM72.9534 45.06C74.3574 45.06 74.9694 44.286 74.9694 43.386C74.9694 42.45 74.3574 41.694 72.9534 41.694H71.2254V45.06H72.9534ZM88.0182 48.48C88.4322 48.48 88.5402 48.678 88.5402 49.002V50.478C88.5402 50.802 88.4322 51 88.0182 51H79.9542C79.5402 51 79.4322 50.802 79.4322 50.478V39.678C79.4322 39.354 79.5402 39.156 79.9542 39.156H87.7122C88.1262 39.156 88.2342 39.354 88.2342 39.678V41.172C88.2342 41.496 88.1262 41.694 87.7122 41.694H82.2762V43.656H87.1002C87.5142 43.656 87.6222 43.854 87.6222 44.178V45.582C87.6222 45.906 87.5142 46.104 87.1002 46.104H82.2762V48.48H88.0182ZM90.9333 47.526L91.5813 39.678C91.5813 39.264 91.7793 39.156 92.1033 39.156H99.2853C99.6093 39.156 99.8073 39.264 99.8073 39.678V50.478C99.8073 50.892 99.6093 51 99.2853 51H97.5033C97.1793 51 96.9813 50.892 96.9813 50.478V41.676H94.1013L93.7053 47.544C93.5073 50.46 92.8773 51.126 90.0693 51.072C89.6013 51.072 89.5293 50.964 89.5293 50.568V49.218C89.5293 48.912 89.6013 48.732 89.9253 48.732C90.7713 48.732 90.8793 48.228 90.9333 47.526ZM102.741 39.156H104.469C104.793 39.156 104.991 39.264 104.991 39.678V45.924L108.807 39.768C109.041 39.408 109.167 39.156 109.617 39.156H111.309C111.723 39.156 111.831 39.354 111.831 39.678V50.478C111.831 50.892 111.633 51 111.309 51H109.527C109.203 51 109.005 50.892 109.005 50.478V44.214L105.189 50.388C104.955 50.748 104.829 51 104.379 51H102.741C102.327 51 102.219 50.802 102.219 50.478V39.678C102.219 39.264 102.417 39.156 102.741 39.156ZM122.642 44.862C122.786 44.916 124.298 45.6 124.298 47.544C124.298 49.83 122.516 51 120.014 51H114.722C114.308 51 114.2 50.802 114.2 50.478V39.66C114.2 39.336 114.308 39.138 114.722 39.138H119.762C122.696 39.138 123.956 40.704 123.956 42.396C123.956 44.214 122.804 44.79 122.642 44.862ZM120.05 48.444C120.932 48.444 121.436 48.084 121.436 47.274C121.436 46.428 120.806 46.176 119.942 46.176H119.528C119.114 46.176 119.006 45.978 119.006 45.654V44.286C119.006 43.962 119.114 43.764 119.528 43.764H119.762C120.806 43.764 121.256 43.386 121.256 42.684C121.256 41.874 120.698 41.676 119.762 41.676H117.026V48.444H120.05ZM136.124 50.496C136.214 50.712 136.214 51 135.818 51H133.928C133.532 51 133.388 50.892 133.244 50.46L132.74 49.038H128.33L127.826 50.46C127.682 50.892 127.538 51 127.142 51H125.252C124.856 51 124.856 50.712 124.946 50.496L128.942 39.714C129.086 39.336 129.284 39.156 129.68 39.156H131.408C131.804 39.156 131.984 39.336 132.146 39.714L136.124 50.496ZM129.194 46.518H131.894L130.544 42.54L129.194 46.518ZM146.605 39.156C146.929 39.156 147.127 39.264 147.127 39.678V50.478C147.127 50.892 146.929 51 146.605 51H144.823C144.499 51 144.301 50.892 144.301 50.478V46.41H140.287V50.478C140.287 50.892 140.107 51 139.765 51H137.983C137.659 51 137.461 50.892 137.461 50.478V39.678C137.461 39.264 137.659 39.156 137.983 39.156H139.765C140.107 39.156 140.287 39.264 140.287 39.678V43.746H144.301V39.678C144.301 39.264 144.499 39.156 144.823 39.156H146.605ZM150.053 39.156H151.781C152.105 39.156 152.303 39.264 152.303 39.678V45.924L156.119 39.768C156.353 39.408 156.479 39.156 156.929 39.156H158.621C159.035 39.156 159.143 39.354 159.143 39.678V50.478C159.143 50.892 158.945 51 158.621 51H156.839C156.515 51 156.317 50.892 156.317 50.478V44.214L152.501 50.388C152.267 50.748 152.141 51 151.691 51H150.053C149.639 51 149.531 50.802 149.531 50.478V39.678C149.531 39.264 149.729 39.156 150.053 39.156ZM160.955 50.424L163.493 46.734C162.377 46.356 160.991 45.042 160.991 43.152C160.991 42 161.369 40.974 162.035 40.326C162.791 39.57 163.655 39.174 165.617 39.174H170.153C170.567 39.174 170.657 39.372 170.657 39.696V50.478C170.657 50.892 170.477 51 170.153 51H168.371C168.047 51 167.849 50.892 167.849 50.478V41.694H165.455C164.519 41.694 163.799 42.288 163.799 43.224C163.799 44.07 164.627 44.682 165.509 44.682H165.869C166.283 44.682 166.391 44.88 166.391 45.204V46.644C166.391 47.148 166.355 47.346 166.193 47.562L164.249 50.46C163.997 50.838 163.781 51 163.349 51H161.225C160.883 51 160.793 50.676 160.955 50.424ZM187.536 39.156C187.878 39.156 187.878 39.498 187.716 39.66L183.666 44.052L187.536 50.424C187.68 50.658 187.608 51 187.266 51H185.07C184.638 51 184.404 50.802 184.17 50.424C184.17 50.424 182.568 47.724 181.596 46.104L180.48 47.274V50.478C180.48 50.892 180.282 51 179.976 51H178.194C177.852 51 177.672 50.892 177.672 50.478V39.678C177.672 39.264 177.852 39.156 178.194 39.156H179.976C180.282 39.156 180.48 39.264 180.48 39.678V43.692L184.206 39.588C184.566 39.192 184.692 39.156 185.106 39.156H187.536ZM193.751 39.156C196.847 39.156 198.467 40.848 198.467 43.332C198.467 45.834 196.811 47.49 193.733 47.49H192.005V50.478C192.005 50.892 191.807 51 191.483 51H189.701C189.377 51 189.179 50.892 189.179 50.478V39.678C189.179 39.354 189.287 39.156 189.701 39.156H193.751ZM193.733 45.06C195.137 45.06 195.749 44.286 195.749 43.386C195.749 42.45 195.137 41.694 193.733 41.694H192.005V45.06H193.733ZM209.518 42.954V47.202C209.518 50.046 206.818 51.27 204.676 51.27C202.534 51.27 199.87 50.046 199.87 47.202V42.954C199.87 40.11 202.534 38.886 204.676 38.886C206.818 38.886 209.518 40.11 209.518 42.954ZM206.692 46.95V43.206C206.692 42.054 205.864 41.388 204.676 41.388C203.506 41.388 202.678 42.054 202.678 43.206V46.95C202.678 48.102 203.506 48.768 204.676 48.768C205.864 48.768 206.692 48.102 206.692 46.95ZM219.986 44.862C220.13 44.916 221.642 45.6 221.642 47.544C221.642 49.83 219.86 51 217.358 51H212.066C211.652 51 211.544 50.802 211.544 50.478V39.66C211.544 39.336 211.652 39.138 212.066 39.138H217.106C220.04 39.138 221.3 40.704 221.3 42.396C221.3 44.214 220.148 44.79 219.986 44.862ZM217.394 48.444C218.276 48.444 218.78 48.084 218.78 47.274C218.78 46.428 218.15 46.176 217.286 46.176H216.872C216.458 46.176 216.35 45.978 216.35 45.654V44.286C216.35 43.962 216.458 43.764 216.872 43.764H217.106C218.15 43.764 218.6 43.386 218.6 42.684C218.6 41.874 218.042 41.676 217.106 41.676H214.37V48.444H217.394ZM224.171 39.156H225.899C226.223 39.156 226.421 39.264 226.421 39.678V45.924L230.237 39.768C230.471 39.408 230.597 39.156 231.047 39.156H232.739C233.153 39.156 233.261 39.354 233.261 39.678V50.478C233.261 50.892 233.063 51 232.739 51H230.957C230.633 51 230.435 50.892 230.435 50.478V44.214L226.619 50.388C226.385 50.748 226.259 51 225.809 51H224.171C223.757 51 223.649 50.802 223.649 50.478V39.678C223.649 39.264 223.847 39.156 224.171 39.156Z" fill="#F8431C"/>
<path d="M32.1115 30.7646C29.8779 30.7646 27.8531 31.7639 26.6006 33.3013C25.3482 31.7639 23.3442 30.7646 21.0898 30.7646C17.2907 30.7646 14.2013 33.6087 14.2013 37.1447C14.2013 38.5091 14.4309 39.7582 14.8484 40.9113C16.8106 46.6187 22.8433 50.0202 25.8283 50.9618C26.2458 51.0963 26.9346 51.0963 27.373 50.9618C30.358 50.0202 36.3907 46.6187 38.3529 40.9113C38.7704 39.739 39 38.4899 39 37.1447C39 33.6087 35.9106 30.7646 32.1115 30.7646Z" fill="#F8431C"/>
<path fill-rule="evenodd" clip-rule="evenodd" d="M16.6199 49.4641C9.76541 48.8562 2.52128 44.5928 0.51932 35.9406C-1.74971 26.1114 3.81825 18.0693 9.43745 9.95323C9.80596 9.42098 10.1747 8.8884 10.5414 8.35499C12.011 6.21758 13.7255 3.75768 15.1714 1.69188C16.729 -0.533537 19.9943 -0.575362 21.5712 1.63641C23.0522 3.71355 24.777 6.19842 26.144 8.35499C26.8756 9.50914 27.627 10.6525 28.3755 11.7915C31.6389 16.7569 34.8463 21.6373 36.1078 26.9528C35.4151 26.7908 34.692 26.705 33.9486 26.705C30.9705 26.705 28.2707 28.104 26.6008 30.2563C24.9308 28.104 22.2589 26.705 19.253 26.705C14.1875 26.705 10.0683 30.6868 10.0683 35.6371C10.0683 37.5473 10.3744 39.2961 10.9311 40.9103C12.0652 44.3741 14.2191 47.2312 16.6199 49.4641Z" fill="#F8431C"/>
</svg>
