<svg width="682" height="271" viewBox="0 0 682 271" fill="none" xmlns="http://www.w3.org/2000/svg">
<rect width="682" height="271" rx="30" fill="white"/>
<path d="M184.782 109.405C185.641 109.405 185.641 110.267 185.234 110.676L175.062 121.752L184.782 137.822C185.143 138.412 184.963 139.275 184.104 139.275H178.588C177.503 139.275 176.916 138.775 176.328 137.822C176.328 137.822 172.304 131.013 169.863 126.927L167.06 129.878V137.958C167.06 139.002 166.563 139.275 165.794 139.275H161.319C160.46 139.275 160.008 139.002 160.008 137.958V110.721C160.008 109.677 160.46 109.405 161.319 109.405H165.794C166.563 109.405 167.06 109.677 167.06 110.721V120.844L176.418 110.494C177.322 109.495 177.639 109.405 178.679 109.405H184.782Z" fill="#F8431C"/>
<path d="M200.392 109.405C208.168 109.405 212.236 113.672 212.236 119.936C212.236 126.246 208.077 130.423 200.347 130.423H196.007V137.958C196.007 139.002 195.509 139.275 194.696 139.275H190.22C189.406 139.275 188.909 139.002 188.909 137.958V110.721C188.909 109.904 189.18 109.405 190.22 109.405H200.392ZM200.347 124.294C203.873 124.294 205.41 122.342 205.41 120.072C205.41 117.712 203.873 115.805 200.347 115.805H196.007V124.294H200.347Z" fill="#F8431C"/>
<path d="M239.866 138.004C240.092 138.548 240.092 139.275 239.097 139.275H234.351C233.356 139.275 232.994 139.002 232.633 137.913L231.367 134.327H220.291L219.025 137.913C218.663 139.002 218.302 139.275 217.307 139.275H212.56C211.566 139.275 211.566 138.548 211.792 138.004L221.828 110.812C222.19 109.859 222.687 109.405 223.682 109.405H228.021C229.016 109.405 229.468 109.859 229.875 110.812L239.866 138.004ZM222.461 127.971H229.242L225.852 117.939L222.461 127.971Z" fill="#F8431C"/>
<path d="M264.788 132.919C265.828 132.919 266.099 133.419 266.099 134.236V137.958C266.099 138.775 265.828 139.275 264.788 139.275H244.535C243.495 139.275 243.224 138.775 243.224 137.958V110.721C243.224 109.904 243.495 109.405 244.535 109.405H264.019C265.059 109.405 265.33 109.904 265.33 110.721V114.489C265.33 115.306 265.059 115.805 264.019 115.805H250.366V120.753H262.482C263.522 120.753 263.793 121.253 263.793 122.07V125.611C263.793 126.428 263.522 126.927 262.482 126.927H250.366V132.919H264.788Z" fill="#F8431C"/>
<path d="M292.091 123.795C292.453 123.931 296.25 125.656 296.25 130.559C296.25 136.324 291.775 139.275 285.491 139.275H272.2C271.16 139.275 270.889 138.775 270.889 137.958V110.676C270.889 109.859 271.16 109.359 272.2 109.359H284.858C292.227 109.359 295.391 113.309 295.391 117.576C295.391 122.161 292.498 123.613 292.091 123.795ZM285.581 132.829C287.796 132.829 289.062 131.921 289.062 129.878C289.062 127.744 287.48 127.109 285.31 127.109H284.27C283.23 127.109 282.959 126.609 282.959 125.792V122.342C282.959 121.525 283.23 121.026 284.27 121.026H284.858C287.48 121.026 288.61 120.072 288.61 118.302C288.61 116.259 287.209 115.76 284.858 115.76H277.986V132.829H285.581Z" fill="#F8431C"/>
<path d="M325.951 138.004C326.177 138.548 326.177 139.275 325.183 139.275H320.436C319.441 139.275 319.08 139.002 318.718 137.913L317.452 134.327H306.376L305.111 137.913C304.749 139.002 304.387 139.275 303.393 139.275H298.646C297.651 139.275 297.651 138.548 297.877 138.004L307.914 110.812C308.275 109.859 308.772 109.405 309.767 109.405H314.107C315.102 109.405 315.554 109.859 315.961 110.812L325.951 138.004ZM308.546 127.971H315.328L311.937 117.939L308.546 127.971Z" fill="#F8431C"/>
<path d="M327.908 137.822L334.282 128.516C331.479 127.563 327.998 124.249 327.998 119.482C327.998 116.577 328.947 113.99 330.62 112.355C332.519 110.449 334.689 109.45 339.617 109.45H351.009C352.049 109.45 352.275 109.949 352.275 110.766V137.958C352.275 139.002 351.823 139.275 351.009 139.275H346.533C345.72 139.275 345.222 139.002 345.222 137.958V115.805H339.21C336.859 115.805 335.051 117.303 335.051 119.664C335.051 121.797 337.13 123.341 339.345 123.341H340.249C341.289 123.341 341.56 123.84 341.56 124.657V128.289C341.56 129.56 341.47 130.059 341.063 130.604L336.181 137.913C335.548 138.866 335.005 139.275 333.92 139.275H328.586C327.727 139.275 327.501 138.458 327.908 137.822Z" fill="#F8431C"/>
<path d="M392.814 130.423C392.814 136.279 386.666 139.956 381.06 139.956C375.68 139.956 368.944 136.823 368.944 129.696V118.983C368.944 111.856 375.68 108.724 381.06 108.724C386.666 108.724 392.226 111.584 392.814 117.349C392.814 118.438 392.452 118.665 391.413 118.665H387.073C386.123 118.665 386.078 117.803 385.716 117.258C384.767 115.76 383.501 115.079 381.06 115.079C378.076 115.079 376.042 116.759 376.042 119.619V129.061C376.042 131.966 378.076 133.6 381.06 133.6C383.501 133.6 385.445 132.692 385.807 130.513C385.942 129.605 386.033 128.879 387.027 128.879H391.458C392.452 128.879 392.814 129.333 392.814 130.423Z" fill="#F8431C"/>
<path d="M417.897 109.405C418.937 109.405 419.208 109.904 419.208 110.721V114.489C419.208 115.306 418.937 115.805 417.897 115.805H410.98V137.958C410.98 139.002 410.483 139.275 409.669 139.275H405.194C404.38 139.275 403.883 139.002 403.883 137.958V115.805H396.921C395.881 115.805 395.61 115.306 395.61 114.489V110.721C395.61 109.904 395.881 109.405 396.921 109.405H417.897Z" fill="#F8431C"/>
<path d="M446.308 138.004C446.534 138.548 446.534 139.275 445.54 139.275H440.793C439.798 139.275 439.437 139.002 439.075 137.913L437.809 134.327H426.733L425.468 137.913C425.106 139.002 424.744 139.275 423.75 139.275H419.003C418.008 139.275 418.008 138.548 418.234 138.004L428.27 110.812C428.632 109.859 429.129 109.405 430.124 109.405H434.464C435.458 109.405 435.911 109.859 436.317 110.812L446.308 138.004ZM428.903 127.971H435.684L432.294 117.939L428.903 127.971Z" fill="#F8431C"/>
<path d="M472.632 109.405C473.445 109.405 473.943 109.677 473.943 110.721V137.958C473.943 139.002 473.445 139.275 472.632 139.275H468.156C467.342 139.275 466.845 139.002 466.845 137.958V127.699H456.764V137.958C456.764 139.002 456.312 139.275 455.453 139.275H450.977C450.163 139.275 449.666 139.002 449.666 137.958V110.721C449.666 109.677 450.163 109.405 450.977 109.405H455.453C456.312 109.405 456.764 109.677 456.764 110.721V120.98H466.845V110.721C466.845 109.677 467.342 109.405 468.156 109.405H472.632Z" fill="#F8431C"/>
<path d="M481.202 139.275C480.388 139.275 479.891 139.002 479.891 137.958V110.721C479.891 109.677 480.388 109.405 481.202 109.405H485.677C486.491 109.405 486.988 109.677 486.988 110.721V133.328H496.437V110.721C496.437 109.677 496.889 109.405 497.748 109.405H502.223C503.037 109.405 503.534 109.677 503.534 110.721V133.01H505.704C506.744 133.01 507.015 133.509 507.015 134.327V142.135C507.015 143.179 506.518 143.451 505.704 143.451H501.997C501.183 143.451 500.686 143.179 500.686 142.135V139.275H481.202Z" fill="#F8431C"/>
<path d="M512.445 109.405H516.785C517.599 109.405 518.096 109.677 518.096 110.721V126.473L527.68 110.948C528.268 110.04 528.584 109.405 529.714 109.405H533.964C535.004 109.405 535.275 109.904 535.275 110.721V137.958C535.275 139.002 534.777 139.275 533.964 139.275H529.488C528.674 139.275 528.177 139.002 528.177 137.958V122.161L518.593 137.731C518.005 138.639 517.689 139.275 516.559 139.275H512.445C511.405 139.275 511.134 138.775 511.134 137.958V110.721C511.134 109.677 511.631 109.405 512.445 109.405Z" fill="#F8431C"/>
<path d="M539.824 137.822L546.199 128.516C543.396 127.563 539.915 124.249 539.915 119.482C539.915 116.577 540.864 113.99 542.537 112.355C544.436 110.449 546.606 109.45 551.533 109.45H562.926C563.965 109.45 564.191 109.949 564.191 110.766V137.958C564.191 139.002 563.739 139.275 562.926 139.275H558.45C557.636 139.275 557.139 139.002 557.139 137.958V115.805H551.126C548.776 115.805 546.967 117.303 546.967 119.664C546.967 121.797 549.047 123.341 551.262 123.341H552.166C553.206 123.341 553.477 123.84 553.477 124.657V128.289C553.477 129.56 553.387 130.059 552.98 130.604L548.097 137.913C547.465 138.866 546.922 139.275 545.837 139.275H540.503C539.644 139.275 539.418 138.458 539.824 137.822Z" fill="#F8431C"/>
<path d="M182.973 152.278C183.787 152.278 184.284 152.55 184.284 153.594V180.831C184.284 181.875 183.787 182.148 182.973 182.148H178.498C177.684 182.148 177.187 181.875 177.187 180.831V158.633H167.105V180.831C167.105 181.875 166.653 182.148 165.794 182.148H161.319C160.505 182.148 160.008 181.875 160.008 180.831V153.594C160.008 152.55 160.505 152.278 161.319 152.278H182.973Z" fill="#F8431C"/>
<path d="M211.842 175.792C212.881 175.792 213.153 176.292 213.153 177.109V180.831C213.153 181.648 212.881 182.148 211.842 182.148H191.589C190.549 182.148 190.278 181.648 190.278 180.831V153.594C190.278 152.777 190.549 152.278 191.589 152.278H211.073C212.113 152.278 212.384 152.777 212.384 153.594V157.362C212.384 158.179 212.113 158.679 211.073 158.679H197.42V163.627H209.536C210.576 163.627 210.847 164.126 210.847 164.943V168.484C210.847 169.301 210.576 169.8 209.536 169.8H197.42V175.792H211.842Z" fill="#F8431C"/>
<path d="M229.425 152.278C237.201 152.278 241.27 156.545 241.27 162.809C241.27 169.119 237.111 173.296 229.38 173.296H225.04V180.831C225.04 181.875 224.543 182.148 223.729 182.148H219.254C218.44 182.148 217.943 181.875 217.943 180.831V153.594C217.943 152.777 218.214 152.278 219.254 152.278H229.425ZM229.38 167.167C232.906 167.167 234.443 165.215 234.443 162.946C234.443 160.585 232.906 158.679 229.38 158.679H225.04V167.167H229.38Z" fill="#F8431C"/>
<path d="M267.216 175.792C268.256 175.792 268.527 176.292 268.527 177.109V180.831C268.527 181.648 268.256 182.148 267.216 182.148H246.963C245.923 182.148 245.652 181.648 245.652 180.831V153.594C245.652 152.777 245.923 152.278 246.963 152.278H266.447C267.487 152.278 267.758 152.777 267.758 153.594V157.362C267.758 158.179 267.487 158.679 266.447 158.679H252.795V163.627H264.91C265.95 163.627 266.221 164.126 266.221 164.943V168.484C266.221 169.301 265.95 169.8 264.91 169.8H252.795V175.792H267.216Z" fill="#F8431C"/>
<path d="M274.537 173.387L276.165 153.594C276.165 152.55 276.662 152.278 277.476 152.278H295.514C296.328 152.278 296.825 152.55 296.825 153.594V180.831C296.825 181.875 296.328 182.148 295.514 182.148H291.038C290.225 182.148 289.727 181.875 289.727 180.831V158.633H282.494L281.499 173.432C281.002 180.786 279.42 182.466 272.367 182.329C271.192 182.329 271.011 182.057 271.011 181.058V177.654C271.011 176.882 271.192 176.428 272.006 176.428C274.131 176.428 274.402 175.157 274.537 173.387Z" fill="#F8431C"/>
<path d="M304.192 152.278H308.532C309.346 152.278 309.843 152.55 309.843 153.594V169.346L319.427 153.821C320.015 152.913 320.332 152.278 321.462 152.278H325.711C326.751 152.278 327.022 152.777 327.022 153.594V180.831C327.022 181.875 326.525 182.148 325.711 182.148H321.236C320.422 182.148 319.925 181.875 319.925 180.831V165.034L310.341 180.604C309.753 181.512 309.436 182.148 308.306 182.148H304.192C303.153 182.148 302.881 181.648 302.881 180.831V153.594C302.881 152.55 303.379 152.278 304.192 152.278Z" fill="#F8431C"/>
<path d="M354.176 166.668C354.538 166.804 358.335 168.529 358.335 173.432C358.335 179.197 353.859 182.148 347.576 182.148H334.284C333.245 182.148 332.973 181.648 332.973 180.831V153.549C332.973 152.732 333.245 152.232 334.284 152.232H346.943C354.312 152.232 357.476 156.182 357.476 160.449C357.476 165.034 354.583 166.486 354.176 166.668ZM347.666 175.702C349.881 175.702 351.147 174.794 351.147 172.751C351.147 170.617 349.565 169.982 347.395 169.982H346.355C345.315 169.982 345.044 169.483 345.044 168.665V165.215C345.044 164.398 345.315 163.899 346.355 163.899H346.943C349.565 163.899 350.695 162.946 350.695 161.175C350.695 159.132 349.293 158.633 346.943 158.633H340.071V175.702H347.666Z" fill="#F8431C"/>
<path d="M388.036 180.877C388.262 181.421 388.262 182.148 387.268 182.148H382.521C381.526 182.148 381.165 181.875 380.803 180.786L379.537 177.2H368.461L367.195 180.786C366.834 181.875 366.472 182.148 365.478 182.148H360.731C359.736 182.148 359.736 181.421 359.962 180.877L369.998 153.685C370.36 152.732 370.857 152.278 371.852 152.278H376.192C377.186 152.278 377.638 152.732 378.045 153.685L388.036 180.877ZM370.631 170.844H377.412L374.022 160.812L370.631 170.844Z" fill="#F8431C"/>
<path d="M414.359 152.278C415.173 152.278 415.67 152.55 415.67 153.594V180.831C415.67 181.875 415.173 182.148 414.359 182.148H409.884C409.07 182.148 408.573 181.875 408.573 180.831V170.572H398.492V180.831C398.492 181.875 398.039 182.148 397.181 182.148H392.705C391.891 182.148 391.394 181.875 391.394 180.831V153.594C391.394 152.55 391.891 152.278 392.705 152.278H397.181C398.039 152.278 398.492 152.55 398.492 153.594V163.854H408.573V153.594C408.573 152.55 409.07 152.278 409.884 152.278H414.359Z" fill="#F8431C"/>
<path d="M423.02 152.278H427.36C428.174 152.278 428.671 152.55 428.671 153.594V169.346L438.255 153.821C438.843 152.913 439.159 152.278 440.289 152.278H444.539C445.579 152.278 445.85 152.777 445.85 153.594V180.831C445.85 181.875 445.353 182.148 444.539 182.148H440.063C439.25 182.148 438.752 181.875 438.752 180.831V165.034L429.168 180.604C428.58 181.512 428.264 182.148 427.134 182.148H423.02C421.98 182.148 421.709 181.648 421.709 180.831V153.594C421.709 152.55 422.206 152.278 423.02 152.278Z" fill="#F8431C"/>
<path d="M450.4 180.695L456.774 171.389C453.971 170.436 450.49 167.122 450.49 162.356C450.49 159.45 451.439 156.863 453.112 155.228C455.011 153.322 457.181 152.323 462.108 152.323H473.501C474.541 152.323 474.767 152.823 474.767 153.64V180.831C474.767 181.875 474.315 182.148 473.501 182.148H469.025C468.211 182.148 467.714 181.875 467.714 180.831V158.679H461.702C459.351 158.679 457.542 160.177 457.542 162.537C457.542 164.671 459.622 166.214 461.837 166.214H462.741C463.781 166.214 464.052 166.713 464.052 167.531V171.162C464.052 172.433 463.962 172.933 463.555 173.477L458.673 180.786C458.04 181.739 457.497 182.148 456.412 182.148H451.078C450.219 182.148 449.993 181.331 450.4 180.695Z" fill="#F8431C"/>
<path d="M517.159 152.278C518.018 152.278 518.018 153.14 517.612 153.549L507.44 164.625L517.159 180.695C517.521 181.285 517.34 182.148 516.481 182.148H510.966C509.881 182.148 509.293 181.648 508.706 180.695C508.706 180.695 504.682 173.886 502.241 169.8L499.438 172.751V180.831C499.438 181.875 498.941 182.148 498.172 182.148H493.697C492.838 182.148 492.386 181.875 492.386 180.831V153.594C492.386 152.55 492.838 152.278 493.697 152.278H498.172C498.941 152.278 499.438 152.55 499.438 153.594V163.717L508.796 153.367C509.7 152.369 510.017 152.278 511.056 152.278H517.159Z" fill="#F8431C"/>
<path d="M532.77 152.278C540.545 152.278 544.614 156.545 544.614 162.809C544.614 169.119 540.455 173.296 532.724 173.296H528.384V180.831C528.384 181.875 527.887 182.148 527.073 182.148H522.598C521.784 182.148 521.287 181.875 521.287 180.831V153.594C521.287 152.777 521.558 152.278 522.598 152.278H532.77ZM532.724 167.167C536.251 167.167 537.788 165.215 537.788 162.946C537.788 160.585 536.251 158.679 532.724 158.679H528.384V167.167H532.724Z" fill="#F8431C"/>
<path d="M572.368 161.856V172.569C572.368 179.742 565.587 182.829 560.208 182.829C554.828 182.829 548.137 179.742 548.137 172.569V161.856C548.137 154.684 554.828 151.597 560.208 151.597C565.587 151.597 572.368 154.684 572.368 161.856ZM565.271 171.934V162.492C565.271 159.586 563.191 157.907 560.208 157.907C557.269 157.907 555.189 159.586 555.189 162.492V171.934C555.189 174.839 557.269 176.519 560.208 176.519C563.191 176.519 565.271 174.839 565.271 171.934Z" fill="#F8431C"/>
<path d="M598.658 166.668C599.02 166.804 602.817 168.529 602.817 173.432C602.817 179.197 598.342 182.148 592.058 182.148H578.767C577.727 182.148 577.456 181.648 577.456 180.831V153.549C577.456 152.732 577.727 152.232 578.767 152.232H591.425C598.794 152.232 601.958 156.182 601.958 160.449C601.958 165.034 599.065 166.486 598.658 166.668ZM592.148 175.702C594.363 175.702 595.629 174.794 595.629 172.751C595.629 170.617 594.047 169.982 591.877 169.982H590.837C589.797 169.982 589.526 169.483 589.526 168.665V165.215C589.526 164.398 589.797 163.899 590.837 163.899H591.425C594.047 163.899 595.177 162.946 595.177 161.175C595.177 159.132 593.776 158.633 591.425 158.633H584.553V175.702H592.148Z" fill="#F8431C"/>
<path d="M609.17 152.278H613.51C614.324 152.278 614.821 152.55 614.821 153.594V169.346L624.405 153.821C624.993 152.913 625.309 152.278 626.439 152.278H630.689C631.729 152.278 632 152.777 632 153.594V180.831C632 181.875 631.503 182.148 630.689 182.148H626.213C625.4 182.148 624.902 181.875 624.902 180.831V165.034L615.318 180.604C614.731 181.512 614.414 182.148 613.284 182.148H609.17C608.13 182.148 607.859 181.648 607.859 180.831V153.594C607.859 152.55 608.356 152.278 609.17 152.278Z" fill="#F8431C"/>
<path d="M126.629 131.525C120.981 131.525 115.862 134.051 112.695 137.937C109.528 134.051 104.461 131.525 98.7604 131.525C89.1542 131.525 81.3425 138.714 81.3425 147.651C81.3425 151.1 81.9231 154.257 82.9787 157.171C87.9402 171.597 103.194 180.194 110.742 182.574C111.797 182.914 113.539 182.914 114.648 182.574C122.195 180.194 137.449 171.597 142.411 157.171C143.466 154.208 144.047 151.051 144.047 147.651C144.047 138.714 136.235 131.525 126.629 131.525Z" fill="#F8431C"/>
<path fill-rule="evenodd" clip-rule="evenodd" d="M87.9808 178.268C70.6669 176.741 52.3686 166.03 47.3118 144.293C41.5803 119.6 55.6447 99.3955 69.8384 79.0055C70.7693 77.6683 71.7007 76.3303 72.6271 74.9902C76.3392 69.6204 80.6697 63.4404 84.322 58.2505C88.2564 52.6596 96.5044 52.5545 100.488 58.1111C104.228 63.3295 108.585 69.5723 112.038 74.9902C113.886 77.8898 115.784 80.7623 117.675 83.6236C125.918 96.0983 134.02 108.359 137.206 121.713C135.457 121.306 133.63 121.091 131.752 121.091C124.23 121.091 117.41 124.606 113.192 130.013C108.974 124.606 102.225 121.091 94.632 121.091C81.8368 121.091 71.4319 131.094 71.4319 143.531C71.4319 148.33 72.2052 152.723 73.6113 156.779C76.476 165.481 81.9168 172.659 87.9808 178.268Z" fill="#F8431C"/>
</svg>
