<svg width="328" height="250" viewBox="0 0 328 250" fill="none" xmlns="http://www.w3.org/2000/svg">
<g clip-path="url(#clip0_106_1129)">
<path d="M230.916 214.814V215.166C230.902 215.049 230.902 214.931 230.916 214.814Z" fill="#162D4E"/>
<path d="M241.717 154.049C241.998 153.973 242.283 153.917 242.572 153.883C242.241 153.937 241.956 153.992 241.717 154.049Z" fill="#162D4E"/>
<path d="M241.467 154.113C241.543 154.091 241.628 154.07 241.718 154.049C241.634 154.07 241.553 154.087 241.467 154.113Z" fill="#162D4E"/>
<path d="M261.684 34.8009C258.743 24.0636 282.469 14.8562 288.7 23.5029C289.566 22.2736 292.768 21.5269 294.237 21.904C295.706 22.2811 296.941 23.2239 298.147 24.1365C299.804 25.4111 301.522 26.7309 302.539 28.5636C303.563 30.3888 303.721 32.8777 302.343 34.4615C301.251 35.721 298.026 36.5355 296.384 36.8673C295.239 37.1012 294.274 37.2897 293.446 37.4254C292.693 36.3398 292.346 35.0234 292.466 33.7073C291.909 34.0839 291.441 34.5795 291.097 35.1585C290.753 35.7374 290.542 36.3854 290.478 37.0559C290.455 37.335 299.736 71.5228 299.736 71.5228C298.621 72.1582 297.448 72.686 296.233 73.0991C293.83 69.4216 291.989 65.4051 290.771 61.1827C290.492 64.0061 290.527 66.8519 290.877 69.6675C291.063 71.2463 291.329 72.8145 291.675 74.3661C280.646 76.7494 264.057 75.965 256.84 65.8286C256.839 65.7867 256.838 65.7447 256.837 65.7027C256.831 65.3026 256.687 64.9169 256.428 64.6117C256.17 64.3064 255.813 64.1007 255.42 64.0296C255.027 63.9585 254.621 64.0265 254.272 64.222C253.923 64.4175 253.653 64.7283 253.508 65.1012C253.333 65.5484 253.172 65.9355 253.028 66.2434C250.926 58.7165 253.646 50.0055 261.684 34.8009Z" fill="#162D4E"/>
<path d="M333.264 249.999H292.837C292.26 249.538 291.859 248.892 291.702 248.171C291.544 247.449 291.639 246.695 291.971 246.035C293.076 243.499 290.912 241.182 290.912 241.182C290.177 240.321 289.666 239.291 289.425 238.184C289.183 237.077 289.218 235.928 289.526 234.838C290.597 231.093 286.4 220.522 286.4 220.522C286.4 220.522 284.137 234.171 281.364 249.999H242.916C242.272 248.9 241.933 247.65 241.933 246.376C241.933 245.103 242.272 243.852 242.916 242.754C245.157 238.95 242.916 238.221 242.916 238.221C242.916 238.221 240.676 233.965 242.916 230.874C245.157 227.784 242.916 215.166 242.916 215.166C243.001 215.724 243.639 214.71 244.622 212.583C246.118 209.347 248.404 203.528 250.715 196.772C252.366 191.951 254.031 186.646 255.423 181.459H255.426C255.791 180.097 256.136 178.746 256.463 177.409C257.101 174.785 257.648 172.236 258.064 169.842C258.965 164.685 259.263 160.256 258.57 157.375C257.996 154.978 256.74 153.656 254.571 153.883C255.733 153.69 257.436 153.507 259.533 153.335C259.911 153.304 260.303 153.274 260.708 153.24C276.352 152.057 309.916 151.377 309.916 151.377L320.197 169.808L333.217 193.155C333.217 193.155 332.862 224.474 333.264 249.999Z" fill="#162D4E"/>
<path d="M290.114 71.7165L266.428 66.6865L261.725 76.1634L245.888 85.3426C245.888 85.3426 256.097 127.13 256.038 133.007C255.89 147.928 232.043 181.377 250.056 178.803C268.069 176.23 271.728 165.452 277.51 167.156C282.726 168.693 289.094 175.531 293.357 170.641C297.62 165.75 299.121 171.397 301.817 171.592C303.098 171.685 302.327 165.417 305.55 171.787C308.773 178.157 325.866 169.583 320.073 163.783C310.425 154.124 308.464 82.9208 308.464 82.9208L297.723 79.6124L290.114 71.7165Z" fill="white"/>
<path d="M245.44 223.469C246.392 222.333 246.863 220.87 246.754 219.392C246.645 217.913 245.963 216.535 244.855 215.552C244.626 215.356 244.382 215.179 244.125 215.023L248.085 195.565L238.93 190.079L236.383 217.321C235.82 218.441 235.642 219.716 235.879 220.947C236.115 222.178 236.752 223.296 237.69 224.126C238.228 224.594 238.853 224.951 239.529 225.176C240.205 225.402 240.919 225.492 241.629 225.442C242.34 225.392 243.034 225.201 243.672 224.883C244.309 224.564 244.877 224.122 245.344 223.583C245.377 223.546 245.409 223.508 245.44 223.469Z" fill="#FFB6B6"/>
<path d="M273.867 120.906C273.809 120.281 273.012 119.997 271.908 119.604C270.798 119.262 269.744 118.762 268.777 118.12C266.332 116.352 267.294 114.502 268.625 111.946C268.885 111.449 269.155 110.932 269.408 110.394C270.162 108.802 268.963 102.232 265.839 90.8645C264.876 87.3651 264.879 84.8934 264.214 83.2536C263.552 81.6137 262.225 80.8056 258.608 80.6366C254.236 80.4156 249.954 81.9391 246.702 84.8731C246.615 84.9509 246.523 85.0354 246.436 85.1166C246.27 85.2721 246.108 85.431 245.949 85.5933C242.942 88.6221 241.221 92.6977 241.147 96.9675L241.13 97.6945L240.383 132.426L238.286 162.903L235.395 204.887L237.536 204.992L246.081 205.418L247.118 205.469L249.577 195.143L252.535 182.717L253.623 178.152L256.997 163.992L258.57 157.375L259.533 153.335L259.925 151.685L261.836 143.665C261.88 143.496 266.278 126.127 271.347 123.222C273.238 122.14 273.921 121.511 273.867 120.906Z" fill="white"/>
<path d="M330.745 223.263C329.677 222.236 329.052 220.832 329.002 219.35C328.952 217.868 329.481 216.425 330.478 215.328C330.684 215.108 330.908 214.906 331.147 214.723L325.123 195.804L333.636 189.366L339.09 216.176C339.771 217.229 340.084 218.477 339.981 219.726C339.878 220.976 339.365 222.156 338.521 223.083C338.036 223.605 337.453 224.027 336.806 224.324C336.158 224.621 335.458 224.788 334.746 224.814C334.034 224.84 333.323 224.726 332.655 224.477C331.988 224.229 331.375 223.851 330.853 223.366C330.817 223.332 330.781 223.298 330.745 223.263Z" fill="#FFB6B6"/>
<path d="M334.91 182.21C334.91 182.21 328.27 158.821 330.295 156.289C332.32 153.757 326.339 153.263 328.916 148.547C331.494 143.832 327.936 143.043 327.936 143.043L326.006 132.201L322.555 105.571L322.451 104.779L321.447 97.031C321.166 94.8181 320.443 92.6845 319.32 90.7578C318.197 88.8311 316.698 87.1509 314.912 85.8176C314.821 85.7477 314.727 85.6805 314.634 85.6133C314.209 85.3071 313.775 85.0234 313.332 84.7622C310.019 82.8058 306.129 82.0661 302.331 82.6703C295.174 83.7862 297.401 86.4582 296.24 93.6165C294.354 105.256 293.865 111.915 294.784 113.419C295.094 113.926 295.42 114.41 295.73 114.876C297.328 117.277 298.484 119.01 296.241 121.035C295.347 121.775 294.353 122.384 293.288 122.844C292.234 123.355 291.471 123.721 291.481 124.349C291.493 124.958 292.238 125.507 294.233 126.379C296.651 127.438 299.248 131.443 301.375 135.534C303.062 138.831 304.567 142.219 305.883 145.682L324.164 197.153L327.145 205.548L328.174 205.385L336.62 204.044L338.738 203.708L334.91 182.21Z" fill="white"/>
<path d="M280.121 66.3311C290.793 66.3311 299.445 57.6697 299.445 46.9855C299.445 36.3012 290.793 27.6399 280.121 27.6399C269.448 27.6399 260.797 36.3012 260.797 46.9855C260.797 57.6697 269.448 66.3311 280.121 66.3311Z" fill="#FFB6B6"/>
<path d="M251.137 36.3092C248.196 25.5719 271.922 16.3645 278.153 25.0112C279.019 23.7819 282.221 23.0352 283.69 23.4123C285.159 23.7894 286.394 24.7322 287.6 25.6448C289.257 26.9194 290.975 28.2392 291.992 30.0719C293.016 31.8971 293.175 34.386 291.796 35.9698C290.704 37.2293 287.479 38.0438 285.837 38.3757C284.692 38.6095 283.728 38.798 282.899 38.9338C282.146 37.8481 281.799 36.5317 281.92 35.2156C281.362 35.5922 280.894 36.0878 280.55 36.6668C280.206 37.2457 279.995 37.8937 279.931 38.5642C279.908 38.8433 289.189 73.0311 289.189 73.0311C288.074 73.6665 286.901 74.1943 285.686 74.6074C283.283 70.9299 281.442 66.9134 280.224 62.691C279.945 65.5144 279.98 68.3602 280.33 71.1758C280.516 72.7546 280.783 74.3228 281.128 75.8744C270.099 78.2577 253.511 77.4733 246.293 67.3369C246.292 67.295 246.291 67.253 246.29 67.211C246.284 66.8109 246.14 66.4252 245.881 66.12C245.623 65.8147 245.266 65.609 244.873 65.5379C244.48 65.4668 244.074 65.5348 243.725 65.7303C243.377 65.9258 243.107 66.2366 242.962 66.6095C242.786 67.0567 242.625 67.4438 242.481 67.7517C240.38 60.2248 243.099 51.5138 251.137 36.3092Z" fill="#162D4E"/>
<path d="M69.481 23.5032C69.1219 24.3409 58.0503 24.2511 57.5432 24.9971C53.6335 30.7561 67.727 55.2593 63.8174 61.0258L63.2727 61.6756C64.5482 61.0871 65.7734 60.3951 66.9361 59.6065C67.0406 57.2462 67.1451 54.8783 67.257 52.518C68.428 54.0177 69.3732 55.6812 70.0624 57.4553C70.9727 56.8129 71.7194 55.6221 75.6209 53.2799C77.2005 51.5428 79.0214 50.0422 81.0277 48.8241L69.481 23.5032Z" fill="#162D4E"/>
<path d="M77.5211 70.7015C76.2993 69.9047 74.9053 69.4111 73.4548 69.2616C72.0043 69.1122 70.5391 69.3111 69.1808 69.8421C67.8225 70.373 66.6103 71.2206 65.6447 72.3144C64.6791 73.4083 63.988 74.7169 63.6288 76.1317L46.8038 120.02L17.8835 103.583C17.7565 101.693 17.0351 99.8929 15.8228 98.4394C14.6104 96.9859 12.9694 95.9541 11.1351 95.492C9.30081 95.0299 7.36743 95.1612 5.61229 95.8671C3.85714 96.5731 2.3704 97.8173 1.3653 99.4215C0.36019 101.026 -0.111642 102.907 0.017472 104.796C0.146586 106.686 0.870016 108.485 2.084 109.938C3.29798 111.39 4.94015 112.42 6.77498 112.88C8.60981 113.34 10.543 113.206 12.2974 112.498C18.3877 119.006 44.7917 145.686 55.7227 135.262C64.9108 126.499 78.1703 92.5388 81.3621 80.8116C81.8734 78.9364 81.7769 76.947 81.0867 75.1302C80.3964 73.3133 79.1479 71.7626 77.5211 70.7015Z" fill="#FFB6B6"/>
<path d="M47.0003 137C46.5 144.5 51.2379 161.126 51.2379 161.126L90.0625 164.641L93.6305 143.722C93.6305 143.722 47.5006 129.5 47.0003 137Z" fill="#FFB6B6"/>
<path d="M105.233 198.71C105.216 199.054 105.194 199.395 105.17 199.739C104.797 204.717 104.372 210.459 103.91 216.75C103.183 226.735 102.371 238.104 101.552 249.998H20.1172L35.9106 202.475C35.9106 202.475 42.2876 198.96 39.041 193.055C35.7944 187.15 42.1826 191.856 42.242 183.423C42.3014 174.99 48.0258 166.019 48.0258 166.019L48.9657 153.251L49.5012 153.261L91.8802 153.968L92.6534 153.982L93.955 164.943C101.858 174.358 105.89 186.429 105.233 198.71Z" fill="#162D4E"/>
<path d="M70.16 59.0584L89.4848 58.0618L98.4607 72.2606C98.4607 72.2606 115.349 75.0873 114.178 95.0104C113.008 114.934 93.6303 132.416 93.6303 132.416L94.4586 129.573L93.0201 133.688L93.2045 135.999L95.1671 138.446L95.3691 140.977L93.6303 144.981C93.8564 145.344 93.9764 145.763 93.9767 146.19C93.977 146.618 93.8575 147.037 93.6319 147.4C93.4063 147.764 93.0835 148.056 92.7002 148.245C92.3169 148.434 91.8884 148.511 91.4634 148.469L63.5405 145.667C62.9048 143.916 62.3947 141.822 59.8464 145.309L57.2161 145.054L47.5 144L47.1155 142C47.211 142.032 48.6155 142.5 47.1155 142C47.1155 140.5 46.9307 135.392 47.1155 133.803C47.5 130.5 47.628 126.521 49.0224 123.724C49.0224 123.724 47.9776 123.724 48.5 123.724C49.0224 123.724 49.0224 123.724 49.0224 123.724C49.0224 123.724 36.3185 104.617 50.9021 90.2261L56.7553 80.2645L63.3045 72.2652L70.16 59.0584Z" fill="#486377"/>
<path d="M74.9693 50.6768C85.0901 50.6768 93.2946 42.4631 93.2946 32.3309C93.2946 22.1988 85.0901 13.9851 74.9693 13.9851C64.8485 13.9851 56.644 22.1988 56.644 32.3309C56.644 42.4631 64.8485 50.6768 74.9693 50.6768Z" fill="#FFB6B6"/>
<path d="M88.8877 58.7593C87.3954 57.511 86.3568 55.8042 85.9331 53.9041C85.5942 56.2111 85.6827 58.5609 86.1943 60.8358C85.2019 61.5827 84.2394 62.2924 83.3292 62.9347C82.64 61.1606 81.6948 59.4971 80.5238 57.9974C80.4119 60.3577 80.3074 62.7256 80.2029 65.086C79.0402 65.8746 77.815 66.5666 76.5395 67.155L77.0842 66.5052C80.9938 60.7387 70.8765 50.1245 74.7861 44.3655C75.8829 42.7521 70.9287 30.0016 67.1534 29.4265C63.7959 28.9185 63.9376 29.8896 60.6846 30.5992C60.3467 29.1887 59.8223 27.8297 59.1252 26.5582C59.3108 27.975 59.2679 29.4125 58.9984 30.8158C57.8419 30.8606 56.932 30.1229 55.7006 29.9344C47.8439 28.7318 48.6423 20.2241 50.8284 17.5275C53.022 14.8385 60.3041 14.0318 63.6616 13.1578C63.9675 12.8591 64.6613 13.0458 64.9673 12.762C71.4018 6.86662 80.0075 5.89031 87.7518 8.50326C96.0106 11.2898 101.16 16.6829 103.803 24.997L104.561 31.6505C105.241 33.7898 104.385 43.7438 103.803 45.9117C101.538 54.3388 96.7154 50.132 88.8877 58.7593Z" fill="#162D4E"/>
<path d="M115.607 145.677L114.886 89.4264C114.848 87.0434 113.876 84.7707 112.18 83.0987C110.483 81.4268 108.198 80.4897 105.817 80.4897C104.586 80.4897 103.367 80.7409 102.235 81.2278C101.104 81.7147 100.083 82.4272 99.2358 83.3218C98.3883 84.2165 97.7317 85.2746 97.3061 86.4315C96.8804 87.5885 96.6945 88.8202 96.7599 90.0514L99.2985 148.459L99.3467 184.015C97.8505 184.65 96.5858 185.731 95.7246 187.111C94.8634 188.491 94.4473 190.103 94.533 191.728C94.6186 193.352 95.2018 194.911 96.2034 196.193C97.2049 197.474 98.5762 198.416 100.131 198.89C101.686 199.364 103.348 199.347 104.893 198.842C106.438 198.337 107.791 197.368 108.766 196.067C109.742 194.766 110.294 193.196 110.347 191.57C110.401 189.943 109.953 188.34 109.064 186.978L115.607 145.677Z" fill="#FFB6B6"/>
<path d="M217.186 218.452C217.186 218.452 216.071 238.542 215.558 250H177.145C176.354 239.573 176.088 231.912 176.088 231.912L173.986 250H135.159L132.751 216.501L144.384 187.634C144.384 187.634 207.424 183.257 213.272 188.809C219.116 194.358 217.186 218.452 217.186 218.452Z" fill="#162D4E"/>
<path d="M183.218 49.4533C194.806 49.4533 204.2 40.0488 204.2 28.4476C204.2 16.8465 194.806 7.44189 183.218 7.44189C171.63 7.44189 162.236 16.8465 162.236 28.4476C162.236 40.0488 171.63 49.4533 183.218 49.4533Z" fill="#FFB6B6"/>
<path d="M207.675 21.6221C205.52 22.6059 204.124 29.7311 202.43 28.0747C200.736 26.4182 200.849 24.2626 198.565 23.6512C196.721 23.1555 194.736 23.7221 193.054 24.6157C192.754 24.7734 192.462 24.9448 192.179 25.1153C191.991 24.99 191.805 24.8721 191.605 24.7633C190.1 23.9572 188.344 23.7594 186.698 24.2108C187.998 24.6469 189.129 25.4813 189.93 26.596C189.367 26.9737 188.797 27.3524 188.214 27.688C183.34 30.5033 176.406 24.3815 171.277 22.0816C174.49 28.1177 172.908 30.6175 170.118 36.86L170.022 37.2154C170.18 35.6509 165.344 34.4849 165.625 36.6873C165.824 38.2511 167.175 41.7268 167.933 43.1075C162.54 36.8647 158.854 29.2252 159.632 21.3444C159.801 19.6889 159.75 17.9422 160.603 16.5053C161.457 15.0758 163.237 14.0727 164.812 14.6178C164.678 12.1046 165.228 9.60207 166.401 7.37641C167.575 5.15075 169.329 3.2851 171.478 1.97781C173.626 0.670521 176.088 -0.0295461 178.602 -0.0479667C181.116 -0.0663874 183.588 0.597531 185.755 1.8732C187.768 3.05613 189.45 4.72917 191.295 6.17231C193.141 7.61543 195.268 8.87335 197.609 8.99249C199.093 9.06417 200.709 8.7013 201.985 9.47112C203.462 10.3644 203.715 12.2346 203.937 14.0341C202.619 14.1642 201.37 14.6847 200.349 15.529C201.712 15.3898 203.085 15.6846 204.272 16.3714C204.294 16.3816 204.316 16.3938 204.336 16.4079C205.117 19.3821 205.037 20.0414 207.675 21.6221Z" fill="#162D4E"/>
<path d="M135.252 197.796C153.12 176.858 147.085 150.226 139.993 123.342L141.342 83.6271C141.409 81.6789 141.942 79.7753 142.898 78.0769C143.854 76.3786 145.203 74.9355 146.834 73.8693L165.075 61.9391L172.174 51.6626L191.745 53.6218L202.597 65.1116L214.61 74.2925C217.626 76.5977 219.921 79.7181 221.224 83.286C222.527 86.8538 222.784 90.7203 221.965 94.4296L210.469 146.475C210.469 146.475 215.277 173.456 212.344 176.435C209.41 179.415 201.851 176.437 207.845 179.782C215.039 183.796 221.58 183.055 217.94 186.7C214.299 190.345 218.907 195.412 218.907 195.412L135.252 197.796Z" fill="#F6493E"/>
<path d="M142.891 228.227L145.87 206.981L133.984 203.584L131.633 226.159C130.65 227.062 129.937 228.221 129.576 229.508C129.214 230.794 129.218 232.155 129.588 233.439C129.957 234.723 130.676 235.879 131.666 236.775C132.655 237.672 133.874 238.275 135.187 238.516C136.5 238.758 137.853 238.627 139.096 238.141C140.339 237.654 141.421 236.829 142.222 235.76C143.022 234.691 143.509 233.42 143.627 232.089C143.746 230.758 143.491 229.421 142.891 228.227Z" fill="#FFB6B6"/>
<path d="M165.52 65.769C165.52 65.769 131.688 76.7928 130.881 84.8588C130.074 92.9248 130.342 97.8625 126.771 130.139L126.959 217.083C126.959 217.083 149.642 221.945 147.316 216.747C144.989 211.549 145.801 209.103 145.801 209.103C145.801 209.103 150.664 207.182 149.447 201.078C148.23 194.975 154.335 164.727 154.335 164.727L158.188 110.48L165.52 65.769Z" fill="#F6493E"/>
<path d="M207.237 227.102L205.651 205.706L217.734 203.094L218.606 225.775C219.528 226.74 220.164 227.944 220.44 229.251C220.717 230.558 220.624 231.916 220.172 233.173C219.719 234.43 218.926 235.536 217.88 236.366C216.835 237.197 215.579 237.719 214.253 237.873C212.927 238.028 211.585 237.81 210.377 237.242C209.168 236.675 208.142 235.782 207.413 234.663C206.684 233.543 206.281 232.243 206.25 230.907C206.219 229.571 206.561 228.254 207.237 227.102Z" fill="#FFB6B6"/>
<path d="M195.264 63.5105C195.264 63.5105 228.304 76.7247 228.583 84.8262C228.861 92.9277 228.272 97.8373 229.727 130.278L223.863 217.025C223.863 217.025 200.911 220.392 203.572 215.357C206.233 210.322 205.582 207.828 205.582 207.828C205.582 207.828 200.855 205.593 202.468 199.582C204.081 193.571 199.964 162.989 199.964 162.989L199.661 108.606L195.264 63.5105Z" fill="#F6493E"/>
</g>
<defs>
<clipPath id="clip0_106_1129">
<rect width="328" height="250" fill="white"/>
</clipPath>
</defs>
</svg>
