<svg width="411" height="250" viewBox="0 0 411 250" fill="none" xmlns="http://www.w3.org/2000/svg">
<g clip-path="url(#clip0_105_933)">
<path d="M325.097 170.219H314.35L314.311 170.179C312.4 168.15 311.54 165.292 312.015 162.546C312.166 161.657 312.451 160.796 312.864 159.985L316.132 153.582L314.836 130.65C314.813 130.225 314.959 129.822 315.249 129.509C315.54 129.201 315.936 129.028 316.361 129.028H318.372C319.198 129.028 319.869 129.677 319.902 130.499L320.779 153.163L325.303 160.242C325.689 160.846 326.002 161.49 326.225 162.155C327.113 164.733 326.789 167.534 325.331 169.838L325.091 170.213H325.097V170.219Z" fill="#162D4E"/>
<path d="M324.169 168.63C324.069 168.793 323.89 168.888 323.7 168.888H315.522C315.366 168.888 315.21 168.821 315.109 168.703C313.729 167.132 313.121 165.068 313.361 163.061C313.389 162.843 313.551 162.658 313.763 162.602C315.472 162.149 317.533 161.892 319.751 161.892C321.488 161.892 323.125 162.054 324.577 162.339C324.778 162.379 324.94 162.524 324.996 162.72C325.577 164.688 325.303 166.847 324.175 168.63H324.169Z" fill="#F6493E"/>
<path d="M410.441 175.067H0.558576C0.251359 175.067 0 174.815 0 174.508C0 174.2 0.251359 173.948 0.558576 173.948H410.441C410.749 173.948 411 174.2 411 174.508C411 174.815 410.749 175.067 410.441 175.067Z" fill="#162D4E"/>
<path d="M120.345 71.2007C114.341 69.4001 110.397 64.837 111.542 61.0121C112.687 57.1871 118.485 55.5431 124.49 57.3437C126.897 58.0315 129.109 59.2841 130.936 61.0009L156.29 68.9471L152.312 80.7799L127.741 71.6872C125.272 72.1178 122.736 71.9501 120.345 71.1951L120.345 71.2007Z" fill="#FDB4B4"/>
<path d="M232.814 74.3099L233.122 95.2073C233.122 95.2073 206.88 94.8606 197.697 95.582C188.514 96.309 131.288 75.3389 131.288 75.3389L140.795 61.8453L203.925 77.1004L232.814 74.3044V74.3099Z" fill="white"/>
<path d="M122.216 45.8912H118.306V99.0154H122.216V45.8912Z" fill="#F6493E"/>
<path d="M136.331 174.508H113.715L113.631 174.418C109.609 170.14 107.799 164.135 108.794 158.352C109.112 156.485 109.71 154.673 110.581 152.967L117.463 139.496L114.731 91.237C114.681 90.3423 114.994 89.4923 115.608 88.8436C116.223 88.1949 117.055 87.837 117.949 87.837H122.177C123.914 87.837 125.333 89.1959 125.4 90.935L127.238 138.635L136.767 153.532C137.583 154.807 138.236 156.16 138.711 157.558C140.577 162.983 139.895 168.877 136.834 173.725L136.331 174.513L136.331 174.508Z" fill="#162D4E"/>
<path d="M134.388 171.169C134.175 171.505 133.801 171.712 133.399 171.712H116.184C115.854 171.712 115.53 171.572 115.312 171.326C112.408 168.015 111.129 163.682 111.631 159.454C111.687 158.99 112.028 158.61 112.48 158.492C116.072 157.542 120.412 156.994 125.082 156.994C128.735 156.994 132.187 157.335 135.237 157.933C135.656 158.017 136.002 158.319 136.119 158.727C137.337 162.865 136.762 167.411 134.388 171.169Z" fill="#F6493E"/>
<path d="M216.057 44.7728L219.408 67.7001L192.597 70.4961L194.272 40.8584L216.057 44.7728Z" fill="#FDB4B4"/>
<path d="M190.569 51.6007C200.555 51.6007 208.65 43.4964 208.65 33.4993C208.65 23.5022 200.555 15.3979 190.569 15.3979C180.583 15.3979 172.488 23.5022 172.488 33.4993C172.488 43.4964 180.583 51.6007 190.569 51.6007Z" fill="#FDB4B4"/>
<path d="M134.231 115.629C129.115 111.033 122.535 109.998 119.529 113.32C116.524 116.642 118.234 123.061 123.35 127.658C125.367 129.526 127.813 130.868 130.489 131.578L152.413 150.775L161.456 140.089L138.884 122.301C137.901 119.723 136.303 117.436 134.231 115.629Z" fill="#FDB4B4"/>
<path d="M194.273 64.9042L221.643 60.9897L237.841 73.2922L239.517 140.956L255.157 248.882L151.262 250C151.262 250 159.082 180.1 162.992 176.185C166.902 172.271 169.695 154.376 169.695 154.376L177.515 77.2066L194.273 64.9042Z" fill="white"/>
<path d="M183.939 76.927C183.939 76.927 169.416 75.8086 166.064 85.8742C162.713 95.9399 158.803 128.933 158.803 128.933L149.866 130.051L142.046 121.663L133.667 141.794C133.667 141.794 163.272 174.228 174.443 159.689C185.615 145.15 183.939 76.927 183.939 76.927Z" fill="white"/>
<path d="M221.363 42.8436C221.363 42.8436 221.363 24.9212 223.039 19.3292C224.715 13.7372 215.219 7.58594 212.426 1.99392C209.633 -3.5981 192.317 4.23072 185.056 5.34913C177.794 6.46753 178.353 10.9411 173.884 18.2108C169.416 25.4804 178.353 36.6644 185.056 37.7828C191.759 38.9012 189.525 43.9341 194.122 49.5261C198.719 55.1181 213.409 49.5261 213.409 49.5261L215.219 52.3221C215.219 52.3221 211.309 67.9798 218.57 81.4006L237.562 86.4334C231.976 69.6574 238.121 69.6574 241.623 60.9897C245.125 52.3221 221.363 42.8436 221.363 42.8436Z" fill="#162D4E"/>
<path d="M354.199 169.654H344.245V152.945H354.199C355.333 152.945 356.243 152.022 356.243 150.887C356.243 149.752 355.327 148.846 354.199 148.84H284.801C283.667 148.84 282.757 149.763 282.757 150.898C282.757 152.033 283.673 152.939 284.801 152.945H293.292V169.654H284.801C283.667 169.654 282.757 170.576 282.757 171.712C282.757 172.847 283.673 173.753 284.801 173.758H354.199C355.333 173.758 356.243 172.836 356.243 171.7C356.243 170.565 355.327 169.659 354.199 169.654ZM297.392 169.654L302.072 157.172L340.139 152.945V169.654H297.392Z" fill="#486377"/>
</g>
<defs>
<clipPath id="clip0_105_933">
<rect width="411" height="250" fill="white"/>
</clipPath>
</defs>
</svg>
