<svg width="293" height="253" viewBox="0 0 293 253" fill="none" xmlns="http://www.w3.org/2000/svg">
<g clip-path="url(#clip0_106_949)">
<path d="M0 250.438C0 250.807 0.295995 251.103 0.664584 251.103H292.335C292.704 251.103 293 250.807 293 250.438C293 250.068 292.704 249.772 292.335 249.772H0.664584C0.29599 249.772 0 250.068 0 250.438Z" fill="#162D4E"/>
<path d="M204.98 29.076L220.761 20.4139V45.1625H202.51L204.98 29.076Z" fill="#162D4E"/>
<path d="M224.144 34.5937L225.601 46.7438L215.104 67.6871L208.589 48.1944L211.652 34.1901L224.144 34.5937Z" fill="#FDB4B4"/>
<path d="M226.144 47.469H208.02V69.4096H226.144V47.469Z" fill="#F6493E"/>
<path d="M241.095 163.66L245.827 234.385L234.194 234.78L218.814 164.253L241.095 163.66Z" fill="#162D4E"/>
<path d="M212.899 163.265L217.631 233.99L205.998 234.385L190.619 163.858L212.899 163.265Z" fill="#162D4E"/>
<path d="M253.385 178.661L253.108 178.66L179 178.417L179.067 178.154L198.119 102.519L193.347 64.3482C192.442 57.1153 196.307 50.2788 202.963 47.3366L205.366 46.2746L209.931 42.9484L215.77 63.6239L225.122 42.9323L229.242 47.0593L238.532 49.5292C244.323 51.0685 248.075 56.7137 247.259 62.6604L247.249 62.7018L233.061 103.265L253.385 178.661Z" fill="white"/>
<path d="M206.745 233.581L219.158 234.206L220.288 240.82C220.288 240.82 229.118 252.329 218.51 251.795C207.903 251.261 189.789 253.627 189.994 249.539C190.199 245.452 203.377 243.657 203.377 243.657L206.745 233.581Z" fill="#162D4E"/>
<path d="M234.254 232.856L246.666 233.481L247.796 240.095C247.796 240.095 256.626 251.604 246.019 251.07C235.412 250.535 217.297 252.902 217.502 248.814C217.707 244.726 230.885 242.931 230.885 242.931L234.254 232.856Z" fill="#162D4E"/>
<path d="M245.62 138.184C245.331 143.158 242.536 147.04 239.377 146.855C236.218 146.671 233.892 142.489 234.182 137.514C234.27 135.525 234.833 133.586 235.822 131.86L237.312 110.802L247.16 111.713L244.646 132.375C245.429 134.206 245.763 136.198 245.62 138.184Z" fill="#FDB4B4"/>
<path d="M195.013 136.293C194.619 141.259 191.742 145.081 188.587 144.829C185.433 144.577 183.196 140.347 183.592 135.379C183.722 133.392 184.326 131.466 185.352 129.761L187.289 108.739L197.115 109.86L194.163 130.465C194.907 132.311 195.198 134.31 195.013 136.293Z" fill="#FDB4B4"/>
<path d="M247.206 129.905L232.904 128.991L232.921 128.776L235.778 92.9423L231.214 59.2467C230.93 57.1479 231.503 55.0834 232.829 53.4338C234.155 51.7841 236.046 50.7827 238.154 50.6136C242.189 50.2949 245.766 53.1828 246.308 57.1977L252.373 102.128L252.367 102.162L247.206 129.905Z" fill="white"/>
<path d="M197.395 128.533L183.07 127.665L183.101 127.438L192.979 55.6558C194.018 51.7133 197.931 49.2883 201.89 50.1087C203.96 50.5377 205.712 51.7659 206.824 53.5673C207.936 55.3687 208.251 57.4883 207.709 59.5358L197.395 128.533Z" fill="white"/>
<path d="M215.467 69.9536C216.166 69.9536 216.733 69.3853 216.733 68.6843C216.733 67.9833 216.166 67.415 215.467 67.415C214.767 67.415 214.2 67.9833 214.2 68.6843C214.2 69.3853 214.767 69.9536 215.467 69.9536Z" fill="#162D4E"/>
<path d="M215.467 79.564C216.166 79.564 216.733 78.9957 216.733 78.2947C216.733 77.5937 216.166 77.0254 215.467 77.0254C214.767 77.0254 214.2 77.5937 214.2 78.2947C214.2 78.9957 214.767 79.564 215.467 79.564Z" fill="#162D4E"/>
<path d="M215.467 89.1743C216.166 89.1743 216.733 88.606 216.733 87.905C216.733 87.204 216.166 86.6357 215.467 86.6357C214.767 86.6357 214.2 87.204 214.2 87.905C214.2 88.606 214.767 89.1743 215.467 89.1743Z" fill="#162D4E"/>
<path d="M215.467 98.7847C216.166 98.7847 216.733 98.2164 216.733 97.5154C216.733 96.8144 216.166 96.2461 215.467 96.2461C214.767 96.2461 214.2 96.8144 214.2 97.5154C214.2 98.2164 214.767 98.7847 215.467 98.7847Z" fill="#162D4E"/>
<path d="M215.467 108.395C216.166 108.395 216.733 107.827 216.733 107.126C216.733 106.425 216.166 105.856 215.467 105.856C214.767 105.856 214.2 106.425 214.2 107.126C214.2 107.827 214.767 108.395 215.467 108.395Z" fill="#162D4E"/>
<path d="M215.467 118.005C216.166 118.005 216.733 117.437 216.733 116.736C216.733 116.035 216.166 115.467 215.467 115.467C214.767 115.467 214.2 116.035 214.2 116.736C214.2 117.437 214.767 118.005 215.467 118.005Z" fill="#162D4E"/>
<path d="M215.467 127.616C216.166 127.616 216.733 127.047 216.733 126.346C216.733 125.645 216.166 125.077 215.467 125.077C214.767 125.077 214.2 125.645 214.2 126.346C214.2 127.047 214.767 127.616 215.467 127.616Z" fill="#162D4E"/>
<path d="M215.467 137.226C216.166 137.226 216.733 136.658 216.733 135.957C216.733 135.256 216.166 134.688 215.467 134.688C214.767 134.688 214.2 135.256 214.2 135.957C214.2 136.658 214.767 137.226 215.467 137.226Z" fill="#162D4E"/>
<path d="M217.389 40.7946C223.933 40.7946 229.238 35.4791 229.238 28.9222C229.238 22.3653 223.933 17.0499 217.389 17.0499C210.845 17.0499 205.54 22.3653 205.54 28.9222C205.54 35.4791 210.845 40.7946 217.389 40.7946Z" fill="#FDB4B4"/>
<path d="M223.599 15.0628C224.167 16.2198 223.266 17.6651 222.075 18.1516C220.883 18.638 219.537 18.4409 218.266 18.2384C216.995 18.036 215.647 17.8439 214.459 18.339C212.921 18.9796 212.055 20.5864 211.308 22.0775C209.914 24.8611 208.52 27.6448 207.126 30.4284C206.445 31.7884 205.748 33.2096 205.735 34.7312C205.711 37.5242 207.922 39.7563 209.112 42.2822C210.56 45.3577 210.441 49.1267 208.801 52.1038C207.16 55.081 204.041 57.1904 200.671 57.6007C199.785 57.7087 198.846 57.697 198.049 57.2934C197.252 56.8899 196.644 56.0087 196.792 55.1262C197.08 53.4002 199.713 52.9969 200.196 51.3152C200.448 50.4373 200.001 49.4998 199.399 48.8142C198.796 48.1285 198.034 47.5936 197.46 46.8843C196.135 45.2489 196.046 42.7243 197.254 40.9999C197.964 39.9865 199.061 39.2336 199.52 38.084C199.911 37.1042 199.769 36.0028 199.621 34.958C199.431 33.6156 199.24 32.2731 199.05 30.9306C198.828 29.3643 198.61 27.7419 199.048 26.2222C200.054 22.7396 203.978 21.104 206.28 18.3066C207.349 17.0067 208.069 15.4434 209.166 14.1669C211.007 12.0247 213.906 10.843 216.717 11.0887C219.528 11.3343 222.179 13.001 223.622 15.4302" fill="#162D4E"/>
<path d="M221.728 15.2823C221.149 15.4898 220.935 16.2453 221.101 16.8382C221.268 17.4311 221.704 17.9023 222.104 18.3706C226.621 23.6673 227.671 31.6792 224.671 37.9648C223.873 39.6367 222.811 41.2102 222.38 43.0125C222.067 44.3239 222.084 45.7624 221.358 46.8977C220.619 48.0535 219.154 48.828 219.009 50.1931C218.916 51.0691 219.449 51.9201 220.163 52.4337C220.878 52.9473 221.75 53.1823 222.609 53.3739C224.839 53.8719 227.12 54.1438 229.405 54.1841C230.15 54.1972 230.919 54.181 231.602 53.8836C232.285 53.5862 232.869 52.9412 232.877 52.1948C232.883 51.6081 232.545 51.0669 232.502 50.4817C232.373 48.7285 234.727 47.7957 235.186 46.0988C235.488 44.9832 234.894 43.8352 234.261 42.869C233.628 41.9027 232.905 40.8881 232.921 39.7324C232.936 38.626 233.629 37.6517 233.898 36.5786C234.27 35.0943 233.813 33.5418 233.359 32.0804C232.973 30.838 232.587 29.5956 232.201 28.3532C231.791 27.0325 231.381 25.7117 230.971 24.391C230.254 22.0853 229.503 19.7127 227.953 17.8634C226.403 16.0141 223.835 14.802 221.546 15.5571" fill="#162D4E"/>
<path d="M229.803 61.2878L228.991 61.0507C230.683 55.2378 227.034 44.3902 226.998 44.2814L227.798 44.0078C227.953 44.4629 231.569 55.2204 229.803 61.2878Z" fill="#162D4E"/>
<path d="M229.397 67.9645C231.348 67.9645 232.93 66.3793 232.93 64.4238C232.93 62.4684 231.348 60.8832 229.397 60.8832C227.445 60.8832 225.863 62.4684 225.863 64.4238C225.863 66.3793 227.445 67.9645 229.397 67.9645Z" fill="#162D4E"/>
<path d="M206.178 76.9588H204.035C203.801 76.9588 203.612 76.769 203.612 76.535C203.612 76.3009 203.801 76.1112 204.035 76.1112H206.178C206.768 76.1112 207.323 75.8806 207.74 75.4618C208.157 75.0431 208.386 74.4867 208.385 73.8952L208.359 60.6692C208.359 57.796 206.027 55.4592 203.16 55.4592C200.293 55.4592 197.961 57.796 197.961 60.6684L197.987 73.048C197.989 74.2557 198.972 75.2457 200.177 75.255L201.648 75.2662C201.882 75.2681 202.07 75.4591 202.068 75.6933C202.066 75.9262 201.877 76.1138 201.645 76.1138H201.642L200.171 76.1027C198.504 76.0898 197.144 74.7201 197.141 73.0496L197.115 60.6692C197.115 57.3287 199.827 54.6116 203.16 54.6116C206.493 54.6116 209.205 57.3287 209.205 60.6684L209.231 73.8935C209.233 74.7118 208.916 75.4814 208.339 76.0605C207.762 76.6397 206.994 76.9588 206.178 76.9588Z" fill="#162D4E"/>
<path d="M201.645 77.1922C202.473 77.1922 203.144 76.5197 203.144 75.69C203.144 74.8604 202.473 74.1879 201.645 74.1879C200.817 74.1879 200.146 74.8604 200.146 75.69C200.146 76.5197 200.817 77.1922 201.645 77.1922Z" fill="#162D4E"/>
<path d="M204.034 78.0372C204.862 78.0372 205.534 77.3646 205.534 76.535C205.534 75.7054 204.862 75.0328 204.034 75.0328C203.206 75.0328 202.535 75.7054 202.535 76.535C202.535 77.3646 203.206 78.0372 204.034 78.0372Z" fill="#162D4E"/>
<path d="M72.4876 26.8876L75.6595 41.3895L68.9129 61.5748L58.0435 39.8873L59.5516 27.3055L72.4876 26.8876Z" fill="#FDB4B4"/>
<path d="M76.2485 40.6384H57.481V63.3586H76.2485V40.6384Z" fill="#F6493E"/>
<path d="M68.5312 34.1923C75.6098 34.1923 81.3481 28.4428 81.3481 21.3504C81.3481 14.2581 75.6098 8.50854 68.5312 8.50854C61.4527 8.50854 55.7144 14.2581 55.7144 21.3504C55.7144 28.4428 61.4527 34.1923 68.5312 34.1923Z" fill="#FDB4B4"/>
<path d="M57.3748 30.8998C57.3748 30.8998 47.8211 13.2212 56.4349 4.71377C65.0487 -3.79363 71.9635 1.81221 71.9635 1.81221L75.9121 1.65232C75.9121 1.65232 76.7356 4.76586 78.0635 3.08037C79.3914 1.39488 81.791 7.53321 81.791 7.53321C86.2447 15.5697 70.8054 17.3701 70.8054 17.3701C70.8054 17.3701 71.9203 20.9284 70.7871 21.6736C69.6539 22.4188 66.6262 25.2221 66.6262 25.2221L63.9163 27.2728L62.3058 24.8143C62.3058 24.8143 60.6236 23.4838 59.7737 24.0426C58.9238 24.6015 60.0929 31.9552 60.0929 31.9552L57.3748 30.8998Z" fill="#162D4E"/>
<path d="M41.9989 160.958L37.0986 234.196L49.145 234.605L65.0707 161.572L41.9989 160.958Z" fill="#162D4E"/>
<path d="M71.1961 160.549L66.2959 233.787L78.3423 234.196L94.268 161.163L71.1961 160.549Z" fill="#162D4E"/>
<path d="M39.0482 177.691L45.4611 97.9247L35.6267 56.3886C34.7788 50.2142 38.6616 44.372 44.6541 42.779L54.2773 40.2209L58.5365 35.9531L68.2245 57.3892L74.2751 35.9695L78.9939 39.408L92.9893 45.5946L92.9829 45.7395L90.738 95.9148L95.7491 176.981L95.5269 176.984L39.0482 177.691Z" fill="white"/>
<path d="M77.5687 233.364L81.0568 243.797C81.0568 243.797 94.7029 245.656 94.9153 249.889C95.1276 254.122 76.3694 251.671 65.3854 252.225C54.4014 252.778 63.5448 240.86 63.5448 240.86L64.7152 234.011L77.5687 233.364Z" fill="#162D4E"/>
<path d="M49.0834 232.613L52.5714 243.046C52.5714 243.046 66.2176 244.905 66.4299 249.138C66.6422 253.371 47.8841 250.92 36.9001 251.473C25.9161 252.027 35.0594 240.109 35.0594 240.109L36.2299 233.26L49.0834 232.613Z" fill="#162D4E"/>
<path d="M32.0658 135.328C31.9179 133.271 32.2639 131.208 33.0749 129.313L30.4717 107.916L40.6694 106.972L42.2118 128.779C43.2366 130.566 43.8192 132.574 43.9108 134.634C44.2108 139.786 41.8022 144.116 38.5309 144.307C35.2596 144.499 32.3649 140.478 32.0658 135.328Z" fill="#FDB4B4"/>
<path d="M96.6551 138.469C96.5296 136.41 96.8981 134.351 97.7297 132.465L95.3594 111.041L105.567 110.209L106.872 132.031C107.877 133.83 108.438 135.844 108.507 137.904C108.751 143.059 106.295 147.363 103.022 147.518C99.749 147.674 96.8982 143.622 96.6551 138.469Z" fill="#FDB4B4"/>
<path d="M30.4297 126.747L30.3953 126.562L25.0806 97.9908L31.3604 51.4649C31.9208 47.3111 35.6226 44.3189 39.797 44.6533C41.977 44.8282 43.9329 45.8641 45.305 47.5708C46.6768 49.2775 47.2704 51.4131 46.9763 53.5846L42.2498 88.4784L45.2257 125.801L30.4297 126.747Z" fill="white"/>
<path d="M93.5055 126.076L82.8202 54.6114C82.2648 52.5159 82.5899 50.3229 83.7403 48.4593C84.8907 46.5958 86.7037 45.3252 88.8456 44.8813C92.9431 44.0322 96.9892 46.5418 98.0587 50.5938L108.324 125.179L93.5055 126.076Z" fill="white"/>
<path d="M68.5379 63.9219C69.2624 63.9219 69.8497 63.3334 69.8497 62.6075C69.8497 61.8816 69.2624 61.2931 68.5379 61.2931C67.8134 61.2931 67.2261 61.8816 67.2261 62.6075C67.2261 63.3334 67.8134 63.9219 68.5379 63.9219Z" fill="#162D4E"/>
<path d="M68.5379 73.8738C69.2624 73.8738 69.8497 73.2853 69.8497 72.5594C69.8497 71.8335 69.2624 71.245 68.5379 71.245C67.8134 71.245 67.2261 71.8335 67.2261 72.5594C67.2261 73.2853 67.8134 73.8738 68.5379 73.8738Z" fill="#162D4E"/>
<path d="M68.5379 83.8256C69.2624 83.8256 69.8497 83.2371 69.8497 82.5112C69.8497 81.7852 69.2624 81.1968 68.5379 81.1968C67.8134 81.1968 67.2261 81.7852 67.2261 82.5112C67.2261 83.2371 67.8134 83.8256 68.5379 83.8256Z" fill="#162D4E"/>
<path d="M68.5379 93.7773C69.2624 93.7773 69.8497 93.1889 69.8497 92.4629C69.8497 91.737 69.2624 91.1486 68.5379 91.1486C67.8134 91.1486 67.2261 91.737 67.2261 92.4629C67.2261 93.1889 67.8134 93.7773 68.5379 93.7773Z" fill="#162D4E"/>
<path d="M68.5379 103.729C69.2624 103.729 69.8497 103.141 69.8497 102.415C69.8497 101.689 69.2624 101.1 68.5379 101.1C67.8134 101.1 67.2261 101.689 67.2261 102.415C67.2261 103.141 67.8134 103.729 68.5379 103.729Z" fill="#162D4E"/>
<path d="M68.5379 113.681C69.2624 113.681 69.8497 113.093 69.8497 112.367C69.8497 111.641 69.2624 111.052 68.5379 111.052C67.8134 111.052 67.2261 111.641 67.2261 112.367C67.2261 113.093 67.8134 113.681 68.5379 113.681Z" fill="#162D4E"/>
<path d="M68.5379 123.633C69.2624 123.633 69.8497 123.044 69.8497 122.319C69.8497 121.593 69.2624 121.004 68.5379 121.004C67.8134 121.004 67.2261 121.593 67.2261 122.319C67.2261 123.044 67.8134 123.633 68.5379 123.633Z" fill="#162D4E"/>
<path d="M68.5379 133.585C69.2624 133.585 69.8497 132.996 69.8497 132.27C69.8497 131.544 69.2624 130.956 68.5379 130.956C67.8134 130.956 67.2261 131.544 67.2261 132.27C67.2261 132.996 67.8134 133.585 68.5379 133.585Z" fill="#162D4E"/>
<path d="M68.5396 141.283L43.7183 137.969L43.2403 137.905L30.5547 108.598L23 91.1493H42.6777L68.5396 141.283Z" fill="#F6493E"/>
<path d="M80.5645 55.9349L79.7524 55.6978C81.4444 49.8849 77.8371 38.8694 77.8003 38.7605L78.8154 39.5272C78.9703 39.9823 82.3308 49.8676 80.5645 55.9349Z" fill="#162D4E"/>
<path d="M52.0167 56.9676L52.8288 56.7304C51.1368 50.9176 54.7851 40.07 54.8219 39.9612L53.9532 40.5442C53.7983 40.9993 50.2503 50.9002 52.0167 56.9676Z" fill="#162D4E"/>
<path d="M80.1587 62.6115C82.1104 62.6115 83.6925 61.0263 83.6925 59.0709C83.6925 57.1155 82.1104 55.5303 80.1587 55.5303C78.2071 55.5303 76.625 57.1155 76.625 59.0709C76.625 61.0263 78.2071 62.6115 80.1587 62.6115Z" fill="#162D4E"/>
<path d="M55.7842 78.7411H53.6411C53.4073 78.7411 53.2181 78.5514 53.2181 78.3173C53.2181 78.0833 53.4073 77.8935 53.6411 77.8935H55.7842C56.3749 77.8935 56.9297 77.663 57.3469 77.2441C57.7637 76.8255 57.9929 76.269 57.9917 75.6775L57.9657 62.4516C57.9657 59.5784 55.6334 57.2416 52.7666 57.2416C49.8998 57.2416 47.5672 59.5784 47.5672 62.4507L47.5932 74.8303C47.5957 76.038 48.5784 77.0281 49.7838 77.0374L51.2548 77.0486C51.4881 77.0504 51.6761 77.2414 51.6744 77.4757C51.6728 77.7085 51.4836 77.8962 51.2514 77.8962H51.2481L49.7772 77.885C48.11 77.8722 46.7505 76.5024 46.7472 74.832L46.7212 62.4516C46.7212 59.1111 49.4331 56.3939 52.7666 56.3939C56.0998 56.3939 58.8116 59.1111 58.8116 62.4507L58.8377 75.6759C58.8393 76.4942 58.5225 77.2638 57.9454 77.8428C57.3688 78.422 56.6008 78.7411 55.7842 78.7411Z" fill="#162D4E"/>
<path d="M51.2512 78.9745C52.0792 78.9745 52.7504 78.302 52.7504 77.4724C52.7504 76.6428 52.0792 75.9702 51.2512 75.9702C50.4232 75.9702 49.752 76.6428 49.752 77.4724C49.752 78.302 50.4232 78.9745 51.2512 78.9745Z" fill="#162D4E"/>
<path d="M53.6408 79.8195C54.4688 79.8195 55.1401 79.147 55.1401 78.3174C55.1401 77.4877 54.4688 76.8152 53.6408 76.8152C52.8128 76.8152 52.1416 77.4877 52.1416 78.3174C52.1416 79.147 52.8128 79.8195 53.6408 79.8195Z" fill="#162D4E"/>
</g>
<defs>
<clipPath id="clip0_106_949">
<rect width="293" height="253" fill="white"/>
</clipPath>
</defs>
</svg>
