<svg width="22" height="24" viewBox="0 0 22 24" fill="none" xmlns="http://www.w3.org/2000/svg">
<path d="M18.6 12V5.4C18.6 2.969 18.6 1 14.2 1H7.6C3.2 1 3.2 2.969 3.2 5.4V12M5.4 12C1 12 1 13.969 1 16.4V17.5C1 20.536 1 23 6.5 23H15.3C19.7 23 20.8 20.536 20.8 17.5V16.4C20.8 13.969 20.8 12 16.4 12C15.3 12 14.992 12.231 14.42 12.66L13.298 13.848C12.9895 14.1761 12.6171 14.4376 12.2038 14.6163C11.7904 14.7951 11.3448 14.8873 10.8945 14.8873C10.4442 14.8873 9.99857 14.7951 9.58522 14.6163C9.17186 14.4376 8.79947 14.1761 8.491 13.848L7.38 12.66C6.808 12.231 6.5 12 5.4 12Z" stroke="#162D4E" stroke-width="1.5" stroke-miterlimit="10" stroke-linecap="round" stroke-linejoin="round"/>
<path d="M9.30558 8.95295H12.9686M8.39258 5.65295H13.8926" stroke="#162D4E" stroke-width="1.5" stroke-linecap="round" stroke-linejoin="round"/>
</svg>
