<svg width="175" height="258" viewBox="0 0 175 258" fill="none" xmlns="http://www.w3.org/2000/svg">
<path fill-rule="evenodd" clip-rule="evenodd" d="M88 0C78.6112 0 71 7.61116 71 17V25H38C26.9543 25 18 33.9543 18 45V180C18 191.046 26.9543 200 38 200H138C149.046 200 158 191.046 158 180V45C158 33.9543 149.046 25 138 25H105V17C105 7.61116 97.3888 0 88 0Z" fill="#D4E4EF"/>
<path fill-rule="evenodd" clip-rule="evenodd" d="M158 118H18V180C18 191.046 26.9543 200 38 200H78V211C78 216.523 82.4771 221 88 221C93.5229 221 98 216.523 98 211V200H138C149.046 200 158 191.046 158 180V118Z" fill="#FFE380"/>
<rect x="38" y="50" width="100" height="125" rx="20" fill="white"/>
<circle cx="88" cy="16" r="4" fill="white"/>
<path d="M10.494 252.37V241.552H4.464L4.356 244.612C4.32 245.56 4.26 246.472 4.176 247.348C4.104 248.212 3.984 248.992 3.816 249.688C3.66 250.372 3.444 250.93 3.168 251.362C2.904 251.794 2.556 252.046 2.124 252.118L0.666 251.848C1.146 251.872 1.542 251.698 1.854 251.326C2.178 250.954 2.424 250.432 2.592 249.76C2.772 249.088 2.904 248.302 2.988 247.402C3.072 246.502 3.132 245.53 3.168 244.486L3.312 240.4H11.808V252.37H10.494ZM0.198 255.826L0.216 251.848H13.698V255.826H12.456V253H1.458L1.44 255.826H0.198ZM19.4633 253.09C18.5513 253.09 17.7293 252.886 16.9973 252.478C16.2773 252.058 15.7073 251.488 15.2873 250.768C14.8673 250.036 14.6573 249.202 14.6573 248.266C14.6573 247.318 14.8673 246.484 15.2873 245.764C15.7073 245.044 16.2773 244.48 16.9973 244.072C17.7173 243.664 18.5393 243.46 19.4633 243.46C20.3993 243.46 21.2273 243.664 21.9473 244.072C22.6793 244.48 23.2493 245.044 23.6573 245.764C24.0773 246.484 24.2873 247.318 24.2873 248.266C24.2873 249.202 24.0773 250.036 23.6573 250.768C23.2493 251.488 22.6793 252.058 21.9473 252.478C21.2153 252.886 20.3873 253.09 19.4633 253.09ZM19.4633 251.956C20.1473 251.956 20.7533 251.806 21.2813 251.506C21.8093 251.194 22.2233 250.762 22.5233 250.21C22.8353 249.646 22.9913 248.998 22.9913 248.266C22.9913 247.522 22.8353 246.874 22.5233 246.322C22.2233 245.77 21.8093 245.344 21.2813 245.044C20.7533 244.732 20.1533 244.576 19.4813 244.576C18.8093 244.576 18.2093 244.732 17.6813 245.044C17.1533 245.344 16.7333 245.77 16.4213 246.322C16.1093 246.874 15.9533 247.522 15.9533 248.266C15.9533 248.998 16.1093 249.646 16.4213 250.21C16.7333 250.762 17.1533 251.194 17.6813 251.506C18.2093 251.806 18.8033 251.956 19.4633 251.956ZM26.7487 253V243.55H28.0267V247.726H33.9847V243.55H35.2627V253H33.9847V248.824H28.0267V253H26.7487ZM42.5132 253.09C41.6012 253.09 40.7792 252.886 40.0472 252.478C39.3272 252.058 38.7572 251.488 38.3372 250.768C37.9172 250.036 37.7072 249.202 37.7072 248.266C37.7072 247.318 37.9172 246.484 38.3372 245.764C38.7572 245.044 39.3272 244.48 40.0472 244.072C40.7672 243.664 41.5892 243.46 42.5132 243.46C43.4492 243.46 44.2772 243.664 44.9972 244.072C45.7292 244.48 46.2992 245.044 46.7072 245.764C47.1272 246.484 47.3372 247.318 47.3372 248.266C47.3372 249.202 47.1272 250.036 46.7072 250.768C46.2992 251.488 45.7292 252.058 44.9972 252.478C44.2652 252.886 43.4372 253.09 42.5132 253.09ZM42.5132 251.956C43.1972 251.956 43.8032 251.806 44.3312 251.506C44.8592 251.194 45.2732 250.762 45.5732 250.21C45.8852 249.646 46.0412 248.998 46.0412 248.266C46.0412 247.522 45.8852 246.874 45.5732 246.322C45.2732 245.77 44.8592 245.344 44.3312 245.044C43.8032 244.732 43.2032 244.576 42.5312 244.576C41.8592 244.576 41.2592 244.732 40.7312 245.044C40.2032 245.344 39.7832 245.77 39.4712 246.322C39.1592 246.874 39.0032 247.522 39.0032 248.266C39.0032 248.998 39.1592 249.646 39.4712 250.21C39.7832 250.762 40.2032 251.194 40.7312 251.506C41.2592 251.806 41.8532 251.956 42.5132 251.956ZM54.6765 253.09C53.8605 253.09 53.1225 252.904 52.4625 252.532C51.8025 252.148 51.2745 251.602 50.8785 250.894C50.4945 250.174 50.3025 249.298 50.3025 248.266C50.3025 247.234 50.4945 246.364 50.8785 245.656C51.2625 244.936 51.7845 244.39 52.4445 244.018C53.1045 243.646 53.8485 243.46 54.6765 243.46C55.5765 243.46 56.3805 243.664 57.0885 244.072C57.8085 244.468 58.3725 245.032 58.7805 245.764C59.1885 246.484 59.3925 247.318 59.3925 248.266C59.3925 249.226 59.1885 250.066 58.7805 250.786C58.3725 251.506 57.8085 252.07 57.0885 252.478C56.3805 252.886 55.5765 253.09 54.6765 253.09ZM49.7985 256.492V243.55H51.0225V246.394L50.8965 248.284L51.0765 250.192V256.492H49.7985ZM54.5865 251.956C55.2585 251.956 55.8585 251.806 56.3865 251.506C56.9145 251.194 57.3345 250.762 57.6465 250.21C57.9585 249.646 58.1145 248.998 58.1145 248.266C58.1145 247.534 57.9585 246.892 57.6465 246.34C57.3345 245.788 56.9145 245.356 56.3865 245.044C55.8585 244.732 55.2585 244.576 54.5865 244.576C53.9145 244.576 53.3085 244.732 52.7685 245.044C52.2405 245.356 51.8205 245.788 51.5085 246.34C51.2085 246.892 51.0585 247.534 51.0585 248.266C51.0585 248.998 51.2085 249.646 51.5085 250.21C51.8205 250.762 52.2405 251.194 52.7685 251.506C53.3085 251.806 53.9145 251.956 54.5865 251.956ZM65.8284 253.09C64.8924 253.09 64.0524 252.886 63.3084 252.478C62.5764 252.058 62.0004 251.488 61.5804 250.768C61.1604 250.036 60.9504 249.202 60.9504 248.266C60.9504 247.318 61.1604 246.484 61.5804 245.764C62.0004 245.044 62.5764 244.48 63.3084 244.072C64.0524 243.664 64.8924 243.46 65.8284 243.46C66.6324 243.46 67.3584 243.616 68.0064 243.928C68.6544 244.24 69.1644 244.708 69.5364 245.332L68.5824 245.98C68.2584 245.5 67.8564 245.146 67.3764 244.918C66.8964 244.69 66.3744 244.576 65.8104 244.576C65.1384 244.576 64.5324 244.732 63.9924 245.044C63.4524 245.344 63.0264 245.77 62.7144 246.322C62.4024 246.874 62.2464 247.522 62.2464 248.266C62.2464 249.01 62.4024 249.658 62.7144 250.21C63.0264 250.762 63.4524 251.194 63.9924 251.506C64.5324 251.806 65.1384 251.956 65.8104 251.956C66.3744 251.956 66.8964 251.842 67.3764 251.614C67.8564 251.386 68.2584 251.038 68.5824 250.57L69.5364 251.218C69.1644 251.83 68.6544 252.298 68.0064 252.622C67.3584 252.934 66.6324 253.09 65.8284 253.09ZM73.3652 253V244.324L73.6892 244.666H69.7832V243.55H78.2252V244.666H74.3192L74.6432 244.324V253H73.3652ZM79.803 253V243.55H83.979C85.047 243.55 85.887 243.754 86.499 244.162C87.123 244.57 87.435 245.17 87.435 245.962C87.435 246.73 87.141 247.324 86.553 247.744C85.965 248.152 85.191 248.356 84.231 248.356L84.483 247.978C85.611 247.978 86.439 248.188 86.967 248.608C87.495 249.028 87.759 249.634 87.759 250.426C87.759 251.242 87.459 251.878 86.859 252.334C86.271 252.778 85.353 253 84.105 253H79.803ZM81.045 251.992H84.051C84.855 251.992 85.461 251.866 85.869 251.614C86.289 251.35 86.499 250.93 86.499 250.354C86.499 249.778 86.313 249.358 85.941 249.094C85.569 248.83 84.981 248.698 84.177 248.698H81.045V251.992ZM81.045 247.744H83.889C84.621 247.744 85.179 247.606 85.563 247.33C85.959 247.054 86.157 246.652 86.157 246.124C86.157 245.596 85.959 245.2 85.563 244.936C85.179 244.672 84.621 244.54 83.889 244.54H81.045V247.744ZM94.3722 253.09C93.4602 253.09 92.6382 252.886 91.9062 252.478C91.1862 252.058 90.6162 251.488 90.1962 250.768C89.7762 250.036 89.5662 249.202 89.5662 248.266C89.5662 247.318 89.7762 246.484 90.1962 245.764C90.6162 245.044 91.1862 244.48 91.9062 244.072C92.6262 243.664 93.4482 243.46 94.3722 243.46C95.3082 243.46 96.1362 243.664 96.8562 244.072C97.5882 244.48 98.1582 245.044 98.5662 245.764C98.9862 246.484 99.1962 247.318 99.1962 248.266C99.1962 249.202 98.9862 250.036 98.5662 250.768C98.1582 251.488 97.5882 252.058 96.8562 252.478C96.1242 252.886 95.2962 253.09 94.3722 253.09ZM94.3722 251.956C95.0562 251.956 95.6622 251.806 96.1902 251.506C96.7182 251.194 97.1322 250.762 97.4322 250.21C97.7442 249.646 97.9002 248.998 97.9002 248.266C97.9002 247.522 97.7442 246.874 97.4322 246.322C97.1322 245.77 96.7182 245.344 96.1902 245.044C95.6622 244.732 95.0622 244.576 94.3902 244.576C93.7182 244.576 93.1182 244.732 92.5902 245.044C92.0622 245.344 91.6422 245.77 91.3302 246.322C91.0182 246.874 90.8622 247.522 90.8622 248.266C90.8622 248.998 91.0182 249.646 91.3302 250.21C91.6422 250.762 92.0622 251.194 92.5902 251.506C93.1182 251.806 93.7122 251.956 94.3722 251.956ZM106.098 253V243.55H114.594V253H113.316V244.324L113.64 244.666H107.052L107.376 244.324V253H106.098ZM116.229 252.982L116.319 251.884C116.403 251.896 116.481 251.914 116.553 251.938C116.637 251.95 116.709 251.956 116.769 251.956C117.153 251.956 117.459 251.812 117.687 251.524C117.927 251.236 118.107 250.852 118.227 250.372C118.347 249.892 118.431 249.352 118.479 248.752C118.527 248.14 118.569 247.528 118.605 246.916L118.767 243.55H125.697V253H124.419V244.288L124.743 244.666H119.595L119.901 244.27L119.757 247.006C119.721 247.822 119.655 248.602 119.559 249.346C119.475 250.09 119.337 250.744 119.145 251.308C118.965 251.872 118.713 252.316 118.389 252.64C118.065 252.952 117.651 253.108 117.147 253.108C117.003 253.108 116.853 253.096 116.697 253.072C116.553 253.048 116.397 253.018 116.229 252.982ZM134.928 253V250.912L134.874 250.57V247.078C134.874 246.274 134.646 245.656 134.19 245.224C133.746 244.792 133.08 244.576 132.192 244.576C131.58 244.576 130.998 244.678 130.446 244.882C129.894 245.086 129.426 245.356 129.042 245.692L128.466 244.738C128.946 244.33 129.522 244.018 130.194 243.802C130.866 243.574 131.574 243.46 132.318 243.46C133.542 243.46 134.484 243.766 135.144 244.378C135.816 244.978 136.152 245.896 136.152 247.132V253H134.928ZM131.67 253.09C130.962 253.09 130.344 252.976 129.816 252.748C129.3 252.508 128.904 252.184 128.628 251.776C128.352 251.356 128.214 250.876 128.214 250.336C128.214 249.844 128.328 249.4 128.556 249.004C128.796 248.596 129.18 248.272 129.708 248.032C130.248 247.78 130.968 247.654 131.868 247.654H135.126V248.608H131.904C130.992 248.608 130.356 248.77 129.996 249.094C129.648 249.418 129.474 249.82 129.474 250.3C129.474 250.84 129.684 251.272 130.104 251.596C130.524 251.92 131.112 252.082 131.868 252.082C132.588 252.082 133.206 251.92 133.722 251.596C134.25 251.26 134.634 250.78 134.874 250.156L135.162 251.038C134.922 251.662 134.502 252.16 133.902 252.532C133.314 252.904 132.57 253.09 131.67 253.09ZM141.629 253.108C140.945 253.108 140.267 253.012 139.595 252.82C138.923 252.628 138.329 252.334 137.813 251.938L138.227 250.984C138.683 251.32 139.211 251.578 139.811 251.758C140.411 251.926 141.005 252.01 141.593 252.01C142.181 251.998 142.691 251.914 143.123 251.758C143.555 251.602 143.891 251.386 144.131 251.11C144.371 250.834 144.491 250.522 144.491 250.174C144.491 249.67 144.263 249.28 143.807 249.004C143.351 248.716 142.727 248.572 141.935 248.572H140.315V247.636H141.845C142.313 247.636 142.727 247.576 143.087 247.456C143.447 247.336 143.723 247.162 143.915 246.934C144.119 246.706 144.221 246.436 144.221 246.124C144.221 245.788 144.101 245.5 143.861 245.26C143.633 245.02 143.315 244.84 142.907 244.72C142.499 244.6 142.037 244.54 141.521 244.54C141.053 244.552 140.567 244.624 140.063 244.756C139.559 244.876 139.061 245.062 138.569 245.314L138.209 244.324C138.761 244.036 139.307 243.82 139.847 243.676C140.399 243.52 140.951 243.442 141.503 243.442C142.259 243.418 142.937 243.508 143.537 243.712C144.149 243.916 144.635 244.21 144.995 244.594C145.355 244.966 145.535 245.416 145.535 245.944C145.535 246.412 145.391 246.82 145.103 247.168C144.815 247.516 144.431 247.786 143.951 247.978C143.471 248.17 142.925 248.266 142.313 248.266L142.367 247.924C143.447 247.924 144.287 248.134 144.887 248.554C145.499 248.974 145.805 249.544 145.805 250.264C145.805 250.828 145.619 251.326 145.247 251.758C144.875 252.178 144.371 252.508 143.735 252.748C143.111 252.988 142.409 253.108 141.629 253.108ZM148.436 253V243.55H149.732L154.016 250.804H153.476L157.832 243.55H159.02V253H157.85V245.008L158.084 245.116L154.016 251.848H153.44L149.336 245.044L149.606 244.99V253H148.436ZM171.603 253V243.55H172.881V253H171.603ZM166.365 246.88C167.553 246.892 168.459 247.156 169.083 247.672C169.707 248.188 170.019 248.932 170.019 249.904C170.019 250.912 169.683 251.686 169.011 252.226C168.339 252.766 167.379 253.03 166.131 253.018L162.387 253V243.55H163.665V246.844L166.365 246.88ZM166.041 252.046C166.929 252.058 167.595 251.884 168.039 251.524C168.495 251.152 168.723 250.612 168.723 249.904C168.723 249.196 168.501 248.68 168.057 248.356C167.613 248.02 166.941 247.846 166.041 247.834L163.665 247.798V252.01L166.041 252.046Z" fill="#162D4E"/>
<path d="M69 89.5H114.5M104.5 105.5H49.5M95.5 113.5H108M117 113.5H123M77.5 97H60.5M58 123.5H100M77.5 135H95.5M104.5 135H117M72 135H66M84.5 144H111.5" stroke="#FFE380" stroke-width="4" stroke-linecap="round"/>
</svg>
