<svg width="238" height="260" viewBox="0 0 238 260" fill="none" xmlns="http://www.w3.org/2000/svg">
<path fill-rule="evenodd" clip-rule="evenodd" d="M119 0C109.611 0 102 7.61116 102 17V25H69C57.9543 25 49 33.9543 49 45V180C49 191.046 57.9543 200 69 200H169C180.046 200 189 191.046 189 180V45C189 33.9543 180.046 25 169 25H136V17C136 7.61116 128.389 0 119 0Z" fill="#D4E4EF"/>
<path fill-rule="evenodd" clip-rule="evenodd" d="M189 118H49V180C49 191.046 57.9543 200 69 200H109V211C109 216.523 113.477 221 119 221C124.523 221 129 216.523 129 211V200H169C180.046 200 189 191.046 189 180V118Z" fill="#486377"/>
<rect x="69" y="50" width="100" height="125" rx="20" fill="white"/>
<circle cx="119" cy="16" r="4" fill="white"/>
<path d="M2.124 255V242.4H3.222L8.982 252.228H8.406L14.112 242.4H15.21V255H13.932V244.398H14.238L8.982 253.398H8.352L3.06 244.398H3.402V255H2.124ZM22.768 255.09C21.856 255.09 21.034 254.886 20.302 254.478C19.582 254.058 19.012 253.488 18.592 252.768C18.172 252.036 17.962 251.202 17.962 250.266C17.962 249.318 18.172 248.484 18.592 247.764C19.012 247.044 19.582 246.48 20.302 246.072C21.022 245.664 21.844 245.46 22.768 245.46C23.704 245.46 24.532 245.664 25.252 246.072C25.984 246.48 26.554 247.044 26.962 247.764C27.382 248.484 27.592 249.318 27.592 250.266C27.592 251.202 27.382 252.036 26.962 252.768C26.554 253.488 25.984 254.058 25.252 254.478C24.52 254.886 23.692 255.09 22.768 255.09ZM22.768 253.956C23.452 253.956 24.058 253.806 24.586 253.506C25.114 253.194 25.528 252.762 25.828 252.21C26.14 251.646 26.296 250.998 26.296 250.266C26.296 249.522 26.14 248.874 25.828 248.322C25.528 247.77 25.114 247.344 24.586 247.044C24.058 246.732 23.458 246.576 22.786 246.576C22.114 246.576 21.514 246.732 20.986 247.044C20.458 247.344 20.038 247.77 19.726 248.322C19.414 248.874 19.258 249.522 19.258 250.266C19.258 250.998 19.414 251.646 19.726 252.21C20.038 252.762 20.458 253.194 20.986 253.506C21.514 253.806 22.108 253.956 22.768 253.956ZM30.0534 255V245.55H36.7494V246.666H31.0074L31.3314 246.342V255H30.0534ZM38.4884 258.582C38.0444 258.582 37.6184 258.51 37.2104 258.366C36.8144 258.222 36.4724 258.006 36.1844 257.718L36.7784 256.764C37.0184 256.992 37.2764 257.166 37.5524 257.286C37.8404 257.418 38.1584 257.484 38.5064 257.484C38.9264 257.484 39.2864 257.364 39.5864 257.124C39.8984 256.896 40.1924 256.488 40.4684 255.9L41.0804 254.514L41.2244 254.316L45.1124 245.55H46.3724L41.6384 256.134C41.3744 256.746 41.0804 257.232 40.7564 257.592C40.4444 257.952 40.1024 258.204 39.7304 258.348C39.3584 258.504 38.9444 258.582 38.4884 258.582ZM41.0084 255.27L36.6524 245.55H37.9844L41.8364 254.226L41.0084 255.27ZM50.8064 254.982L50.8964 253.884C50.9804 253.896 51.0584 253.914 51.1304 253.938C51.2144 253.95 51.2864 253.956 51.3464 253.956C51.7304 253.956 52.0364 253.812 52.2644 253.524C52.5044 253.236 52.6844 252.852 52.8044 252.372C52.9244 251.892 53.0084 251.352 53.0564 250.752C53.1044 250.14 53.1464 249.528 53.1824 248.916L53.3444 245.55H60.2744V255H58.9964V246.288L59.3204 246.666H54.1724L54.4784 246.27L54.3344 249.006C54.2984 249.822 54.2324 250.602 54.1364 251.346C54.0524 252.09 53.9144 252.744 53.7224 253.308C53.5424 253.872 53.2904 254.316 52.9664 254.64C52.6424 254.952 52.2284 255.108 51.7244 255.108C51.5804 255.108 51.4304 255.096 51.2744 255.072C51.1304 255.048 50.9744 255.018 50.8064 254.982ZM63.6375 255V245.55H64.9155V253.056L71.2335 245.55H72.3675V255H71.0895V247.476L64.7895 255H63.6375ZM86.303 255V251.598L86.537 251.868H83.333C82.121 251.868 81.173 251.604 80.489 251.076C79.805 250.548 79.463 249.78 79.463 248.772C79.463 247.692 79.829 246.888 80.561 246.36C81.293 245.82 82.271 245.55 83.495 245.55H87.473V255H86.303ZM79.391 255L81.983 251.364H83.315L80.777 255H79.391ZM86.303 251.22V246.288L86.537 246.666H83.531C82.655 246.666 81.971 246.834 81.479 247.17C80.999 247.506 80.759 248.052 80.759 248.808C80.759 250.212 81.653 250.914 83.441 250.914H86.537L86.303 251.22ZM99.2479 255.09C98.3119 255.09 97.4719 254.886 96.7279 254.478C95.9959 254.058 95.4199 253.488 94.9999 252.768C94.5799 252.036 94.3699 251.202 94.3699 250.266C94.3699 249.318 94.5799 248.484 94.9999 247.764C95.4199 247.044 95.9959 246.48 96.7279 246.072C97.4719 245.664 98.3119 245.46 99.2479 245.46C100.052 245.46 100.778 245.616 101.426 245.928C102.074 246.24 102.584 246.708 102.956 247.332L102.002 247.98C101.678 247.5 101.276 247.146 100.796 246.918C100.316 246.69 99.7939 246.576 99.2299 246.576C98.5579 246.576 97.9519 246.732 97.4119 247.044C96.8719 247.344 96.4459 247.77 96.1339 248.322C95.8219 248.874 95.6659 249.522 95.6659 250.266C95.6659 251.01 95.8219 251.658 96.1339 252.21C96.4459 252.762 96.8719 253.194 97.4119 253.506C97.9519 253.806 98.5579 253.956 99.2299 253.956C99.7939 253.956 100.316 253.842 100.796 253.614C101.276 253.386 101.678 253.038 102.002 252.57L102.956 253.218C102.584 253.83 102.074 254.298 101.426 254.622C100.778 254.934 100.052 255.09 99.2479 255.09ZM106.785 255V246.324L107.109 246.666H103.203V245.55H111.645V246.666H107.739L108.063 246.324V255H106.785ZM119.091 255V252.912L119.037 252.57V249.078C119.037 248.274 118.809 247.656 118.353 247.224C117.909 246.792 117.243 246.576 116.355 246.576C115.743 246.576 115.161 246.678 114.609 246.882C114.057 247.086 113.589 247.356 113.205 247.692L112.629 246.738C113.109 246.33 113.685 246.018 114.357 245.802C115.029 245.574 115.737 245.46 116.481 245.46C117.705 245.46 118.647 245.766 119.307 246.378C119.979 246.978 120.315 247.896 120.315 249.132V255H119.091ZM115.833 255.09C115.125 255.09 114.507 254.976 113.979 254.748C113.463 254.508 113.067 254.184 112.791 253.776C112.515 253.356 112.377 252.876 112.377 252.336C112.377 251.844 112.491 251.4 112.719 251.004C112.959 250.596 113.343 250.272 113.871 250.032C114.411 249.78 115.131 249.654 116.031 249.654H119.289V250.608H116.067C115.155 250.608 114.519 250.77 114.159 251.094C113.811 251.418 113.637 251.82 113.637 252.3C113.637 252.84 113.847 253.272 114.267 253.596C114.687 253.92 115.275 254.082 116.031 254.082C116.751 254.082 117.369 253.92 117.885 253.596C118.413 253.26 118.797 252.78 119.037 252.156L119.325 253.038C119.085 253.662 118.665 254.16 118.065 254.532C117.477 254.904 116.733 255.09 115.833 255.09ZM125.247 255V246.324L125.571 246.666H121.665V245.55H130.107V246.666H126.201L126.525 246.324V255H125.247ZM135.752 248.88C136.94 248.892 137.84 249.156 138.452 249.672C139.076 250.188 139.388 250.932 139.388 251.904C139.388 252.912 139.052 253.686 138.38 254.226C137.72 254.766 136.76 255.03 135.5 255.018L131.684 255V245.55H132.962V248.844L135.752 248.88ZM135.428 254.046C136.304 254.058 136.964 253.884 137.408 253.524C137.864 253.152 138.092 252.612 138.092 251.904C138.092 251.196 137.87 250.68 137.426 250.356C136.982 250.02 136.316 249.846 135.428 249.834L132.962 249.798V254.01L135.428 254.046ZM152.478 254.388V246.666H147.924L147.816 248.772C147.792 249.408 147.75 250.032 147.69 250.644C147.642 251.256 147.552 251.82 147.42 252.336C147.3 252.84 147.126 253.254 146.898 253.578C146.67 253.89 146.376 254.07 146.016 254.118L144.738 253.884C145.11 253.896 145.416 253.764 145.656 253.488C145.896 253.2 146.082 252.81 146.214 252.318C146.346 251.826 146.442 251.268 146.502 250.644C146.562 250.008 146.61 249.36 146.646 248.7L146.772 245.55H153.756V254.388H152.478ZM144.342 257.286V253.884H155.232V257.286H154.026V255H145.548V257.286H144.342ZM161.341 255.09C160.429 255.09 159.607 254.886 158.875 254.478C158.155 254.058 157.585 253.488 157.165 252.768C156.745 252.036 156.535 251.202 156.535 250.266C156.535 249.318 156.745 248.484 157.165 247.764C157.585 247.044 158.155 246.48 158.875 246.072C159.595 245.664 160.417 245.46 161.341 245.46C162.277 245.46 163.105 245.664 163.825 246.072C164.557 246.48 165.127 247.044 165.535 247.764C165.955 248.484 166.165 249.318 166.165 250.266C166.165 251.202 165.955 252.036 165.535 252.768C165.127 253.488 164.557 254.058 163.825 254.478C163.093 254.886 162.265 255.09 161.341 255.09ZM161.341 253.956C162.025 253.956 162.631 253.806 163.159 253.506C163.687 253.194 164.101 252.762 164.401 252.21C164.713 251.646 164.869 250.998 164.869 250.266C164.869 249.522 164.713 248.874 164.401 248.322C164.101 247.77 163.687 247.344 163.159 247.044C162.631 246.732 162.031 246.576 161.359 246.576C160.687 246.576 160.087 246.732 159.559 247.044C159.031 247.344 158.611 247.77 158.299 248.322C157.987 248.874 157.831 249.522 157.831 250.266C157.831 250.998 157.987 251.646 158.299 252.21C158.611 252.762 159.031 253.194 159.559 253.506C160.087 253.806 160.681 253.956 161.341 253.956ZM168.626 255V245.55H169.904V249.726H175.862V245.55H177.14V255H175.862V250.824H169.904V255H168.626ZM184.39 255.09C183.478 255.09 182.656 254.886 181.924 254.478C181.204 254.058 180.634 253.488 180.214 252.768C179.794 252.036 179.584 251.202 179.584 250.266C179.584 249.318 179.794 248.484 180.214 247.764C180.634 247.044 181.204 246.48 181.924 246.072C182.644 245.664 183.466 245.46 184.39 245.46C185.326 245.46 186.154 245.664 186.874 246.072C187.606 246.48 188.176 247.044 188.584 247.764C189.004 248.484 189.214 249.318 189.214 250.266C189.214 251.202 189.004 252.036 188.584 252.768C188.176 253.488 187.606 254.058 186.874 254.478C186.142 254.886 185.314 255.09 184.39 255.09ZM184.39 253.956C185.074 253.956 185.68 253.806 186.208 253.506C186.736 253.194 187.15 252.762 187.45 252.21C187.762 251.646 187.918 250.998 187.918 250.266C187.918 249.522 187.762 248.874 187.45 248.322C187.15 247.77 186.736 247.344 186.208 247.044C185.68 246.732 185.08 246.576 184.408 246.576C183.736 246.576 183.136 246.732 182.608 247.044C182.08 247.344 181.66 247.77 181.348 248.322C181.036 248.874 180.88 249.522 180.88 250.266C180.88 250.998 181.036 251.646 181.348 252.21C181.66 252.762 182.08 253.194 182.608 253.506C183.136 253.806 183.73 253.956 184.39 253.956ZM196.554 255.09C195.738 255.09 195 254.904 194.34 254.532C193.68 254.148 193.152 253.602 192.756 252.894C192.372 252.174 192.18 251.298 192.18 250.266C192.18 249.234 192.372 248.364 192.756 247.656C193.14 246.936 193.662 246.39 194.322 246.018C194.982 245.646 195.726 245.46 196.554 245.46C197.454 245.46 198.258 245.664 198.966 246.072C199.686 246.468 200.25 247.032 200.658 247.764C201.066 248.484 201.27 249.318 201.27 250.266C201.27 251.226 201.066 252.066 200.658 252.786C200.25 253.506 199.686 254.07 198.966 254.478C198.258 254.886 197.454 255.09 196.554 255.09ZM191.676 258.492V245.55H192.9V248.394L192.774 250.284L192.954 252.192V258.492H191.676ZM196.464 253.956C197.136 253.956 197.736 253.806 198.264 253.506C198.792 253.194 199.212 252.762 199.524 252.21C199.836 251.646 199.992 250.998 199.992 250.266C199.992 249.534 199.836 248.892 199.524 248.34C199.212 247.788 198.792 247.356 198.264 247.044C197.736 246.732 197.136 246.576 196.464 246.576C195.792 246.576 195.186 246.732 194.646 247.044C194.118 247.356 193.698 247.788 193.386 248.34C193.086 248.892 192.936 249.534 192.936 250.266C192.936 250.998 193.086 251.646 193.386 252.21C193.698 252.762 194.118 253.194 194.646 253.506C195.186 253.806 195.792 253.956 196.464 253.956ZM207.634 255.09C206.722 255.09 205.9 254.886 205.168 254.478C204.448 254.058 203.878 253.488 203.458 252.768C203.038 252.036 202.828 251.202 202.828 250.266C202.828 249.318 203.038 248.484 203.458 247.764C203.878 247.044 204.448 246.48 205.168 246.072C205.888 245.664 206.71 245.46 207.634 245.46C208.57 245.46 209.398 245.664 210.118 246.072C210.85 246.48 211.42 247.044 211.828 247.764C212.248 248.484 212.458 249.318 212.458 250.266C212.458 251.202 212.248 252.036 211.828 252.768C211.42 253.488 210.85 254.058 210.118 254.478C209.386 254.886 208.558 255.09 207.634 255.09ZM207.634 253.956C208.318 253.956 208.924 253.806 209.452 253.506C209.98 253.194 210.394 252.762 210.694 252.21C211.006 251.646 211.162 250.998 211.162 250.266C211.162 249.522 211.006 248.874 210.694 248.322C210.394 247.77 209.98 247.344 209.452 247.044C208.924 246.732 208.324 246.576 207.652 246.576C206.98 246.576 206.38 246.732 205.852 247.044C205.324 247.344 204.904 247.77 204.592 248.322C204.28 248.874 204.124 249.522 204.124 250.266C204.124 250.998 204.28 251.646 204.592 252.21C204.904 252.762 205.324 253.194 205.852 253.506C206.38 253.806 206.974 253.956 207.634 253.956ZM214.919 255V245.55H216.215L220.499 252.804H219.959L224.315 245.55H225.503V255H224.333V247.008L224.567 247.116L220.499 253.848H219.923L215.819 247.044L216.089 246.99V255H214.919ZM231.457 251.22C231.457 250.716 231.535 250.284 231.691 249.924C231.859 249.564 232.063 249.246 232.303 248.97C232.555 248.694 232.819 248.436 233.095 248.196C233.383 247.956 233.653 247.716 233.905 247.476C234.157 247.224 234.361 246.954 234.517 246.666C234.673 246.366 234.751 246.018 234.751 245.622C234.751 244.974 234.499 244.446 233.995 244.038C233.491 243.63 232.777 243.426 231.853 243.426C231.085 243.426 230.419 243.552 229.855 243.804C229.291 244.044 228.811 244.404 228.415 244.884L227.461 244.164C227.941 243.564 228.559 243.102 229.315 242.778C230.071 242.454 230.947 242.292 231.943 242.292C232.783 242.292 233.509 242.418 234.121 242.67C234.745 242.922 235.225 243.282 235.561 243.75C235.909 244.218 236.083 244.776 236.083 245.424C236.083 245.94 235.999 246.384 235.831 246.756C235.675 247.116 235.471 247.44 235.219 247.728C234.979 248.004 234.715 248.268 234.427 248.52C234.151 248.76 233.887 249.006 233.635 249.258C233.383 249.51 233.179 249.792 233.023 250.104C232.867 250.416 232.789 250.788 232.789 251.22H231.457ZM232.123 255.09C231.871 255.09 231.649 255 231.457 254.82C231.277 254.628 231.187 254.406 231.187 254.154C231.187 253.89 231.277 253.674 231.457 253.506C231.649 253.326 231.871 253.236 232.123 253.236C232.399 253.236 232.627 253.326 232.807 253.506C232.987 253.674 233.077 253.89 233.077 254.154C233.077 254.406 232.987 254.628 232.807 254.82C232.627 255 232.399 255.09 232.123 255.09Z" fill="#162D4E"/>
<path d="M111.166 143.113C113.859 139.526 118.774 139.526 121.467 143.113C122.856 144.963 123.722 147.744 121.467 150.747C119.212 153.751 113.421 153.751 111.166 150.747C109.809 148.94 109.344 145.54 111.166 143.113ZM137 104.488C137 106.818 136.714 108.918 136.142 110.788C135.569 112.631 134.82 114.162 133.893 115.382C132.994 116.574 131.986 117.685 130.869 118.715C129.779 119.718 128.675 120.68 127.558 121.601C126.468 122.523 125.459 123.485 124.533 124.487C123.633 125.49 122.898 126.723 122.325 128.187C121.753 129.65 121.467 131.303 121.467 133.146C121.467 133.146 121.572 134.17 121.467 134.813C120.821 138.761 111.812 138.761 111.166 134.813C111.061 134.17 111.166 133.146 111.166 133.146C111.166 130.707 111.452 128.498 112.025 126.52C112.597 124.542 113.346 122.902 114.273 121.601C115.199 120.273 116.221 119.067 117.339 117.983C118.456 116.872 119.573 115.883 120.69 115.016C121.835 114.122 122.87 113.241 123.797 112.374C124.723 111.507 125.473 110.504 126.045 109.366C126.617 108.227 126.904 106.981 126.904 105.626C126.904 104.975 126.822 104.352 126.658 103.756C126.522 103.16 126.209 102.509 125.718 101.805C125.228 101.1 124.587 100.49 123.797 99.9755C123.007 99.4606 121.917 99.027 120.527 98.6747C119.137 98.3224 117.529 98.1462 115.703 98.1462C114.205 98.1462 112.556 98.3224 110.757 98.6747C108.986 99.027 107.528 99.447 106.384 99.9348C106.384 99.9348 105.105 100.549 104.228 100.563C101.647 100.602 99.6836 98.0173 100.042 95.4751C100.289 93.7246 102.868 91.9268 102.868 91.9268C106.82 89.9756 111.466 89 116.807 89C123.075 89 128.007 90.3143 131.604 92.943C135.201 95.5717 137 99.4199 137 104.488Z" fill="#486377"/>
</svg>
