<svg width="227" height="258" viewBox="0 0 227 258" fill="none" xmlns="http://www.w3.org/2000/svg">
<path fill-rule="evenodd" clip-rule="evenodd" d="M114 0C104.611 0 97 7.61116 97 17V25H64C52.9543 25 44 33.9543 44 45V180C44 191.046 52.9543 200 64 200H164C175.046 200 184 191.046 184 180V45C184 33.9543 175.046 25 164 25H131V17C131 7.61116 123.389 0 114 0Z" fill="#D4E4EF"/>
<path fill-rule="evenodd" clip-rule="evenodd" d="M184 118H44V180C44 191.046 52.9543 200 64 200H104V211C104 216.523 108.477 221 114 221C119.523 221 124 216.523 124 211V200H164C175.046 200 184 191.046 184 180V118Z" fill="#FDB4B4"/>
<rect x="64" y="50" width="100" height="125" rx="20" fill="white"/>
<circle cx="114" cy="16" r="4" fill="white"/>
<path d="M10.494 252.37V241.552H4.464L4.356 244.612C4.32 245.56 4.26 246.472 4.176 247.348C4.104 248.212 3.984 248.992 3.816 249.688C3.66 250.372 3.444 250.93 3.168 251.362C2.904 251.794 2.556 252.046 2.124 252.118L0.666 251.848C1.146 251.872 1.542 251.698 1.854 251.326C2.178 250.954 2.424 250.432 2.592 249.76C2.772 249.088 2.904 248.302 2.988 247.402C3.072 246.502 3.132 245.53 3.168 244.486L3.312 240.4H11.808V252.37H10.494ZM0.198 255.826L0.216 251.848H13.698V255.826H12.456V253H1.458L1.44 255.826H0.198ZM19.4633 253.09C18.5513 253.09 17.7293 252.886 16.9973 252.478C16.2773 252.058 15.7073 251.488 15.2873 250.768C14.8673 250.036 14.6573 249.202 14.6573 248.266C14.6573 247.318 14.8673 246.484 15.2873 245.764C15.7073 245.044 16.2773 244.48 16.9973 244.072C17.7173 243.664 18.5393 243.46 19.4633 243.46C20.3993 243.46 21.2273 243.664 21.9473 244.072C22.6793 244.48 23.2493 245.044 23.6573 245.764C24.0773 246.484 24.2873 247.318 24.2873 248.266C24.2873 249.202 24.0773 250.036 23.6573 250.768C23.2493 251.488 22.6793 252.058 21.9473 252.478C21.2153 252.886 20.3873 253.09 19.4633 253.09ZM19.4633 251.956C20.1473 251.956 20.7533 251.806 21.2813 251.506C21.8093 251.194 22.2233 250.762 22.5233 250.21C22.8353 249.646 22.9913 248.998 22.9913 248.266C22.9913 247.522 22.8353 246.874 22.5233 246.322C22.2233 245.77 21.8093 245.344 21.2813 245.044C20.7533 244.732 20.1533 244.576 19.4813 244.576C18.8093 244.576 18.2093 244.732 17.6813 245.044C17.1533 245.344 16.7333 245.77 16.4213 246.322C16.1093 246.874 15.9533 247.522 15.9533 248.266C15.9533 248.998 16.1093 249.646 16.4213 250.21C16.7333 250.762 17.1533 251.194 17.6813 251.506C18.2093 251.806 18.8033 251.956 19.4633 251.956ZM26.7487 253V243.55H28.0267V247.726H33.9847V243.55H35.2627V253H33.9847V248.824H28.0267V253H26.7487ZM42.5132 253.09C41.6012 253.09 40.7792 252.886 40.0472 252.478C39.3272 252.058 38.7572 251.488 38.3372 250.768C37.9172 250.036 37.7072 249.202 37.7072 248.266C37.7072 247.318 37.9172 246.484 38.3372 245.764C38.7572 245.044 39.3272 244.48 40.0472 244.072C40.7672 243.664 41.5892 243.46 42.5132 243.46C43.4492 243.46 44.2772 243.664 44.9972 244.072C45.7292 244.48 46.2992 245.044 46.7072 245.764C47.1272 246.484 47.3372 247.318 47.3372 248.266C47.3372 249.202 47.1272 250.036 46.7072 250.768C46.2992 251.488 45.7292 252.058 44.9972 252.478C44.2652 252.886 43.4372 253.09 42.5132 253.09ZM42.5132 251.956C43.1972 251.956 43.8032 251.806 44.3312 251.506C44.8592 251.194 45.2732 250.762 45.5732 250.21C45.8852 249.646 46.0412 248.998 46.0412 248.266C46.0412 247.522 45.8852 246.874 45.5732 246.322C45.2732 245.77 44.8592 245.344 44.3312 245.044C43.8032 244.732 43.2032 244.576 42.5312 244.576C41.8592 244.576 41.2592 244.732 40.7312 245.044C40.2032 245.344 39.7832 245.77 39.4712 246.322C39.1592 246.874 39.0032 247.522 39.0032 248.266C39.0032 248.998 39.1592 249.646 39.4712 250.21C39.7832 250.762 40.2032 251.194 40.7312 251.506C41.2592 251.806 41.8532 251.956 42.5132 251.956ZM54.6765 253.09C53.8605 253.09 53.1225 252.904 52.4625 252.532C51.8025 252.148 51.2745 251.602 50.8785 250.894C50.4945 250.174 50.3025 249.298 50.3025 248.266C50.3025 247.234 50.4945 246.364 50.8785 245.656C51.2625 244.936 51.7845 244.39 52.4445 244.018C53.1045 243.646 53.8485 243.46 54.6765 243.46C55.5765 243.46 56.3805 243.664 57.0885 244.072C57.8085 244.468 58.3725 245.032 58.7805 245.764C59.1885 246.484 59.3925 247.318 59.3925 248.266C59.3925 249.226 59.1885 250.066 58.7805 250.786C58.3725 251.506 57.8085 252.07 57.0885 252.478C56.3805 252.886 55.5765 253.09 54.6765 253.09ZM49.7985 256.492V243.55H51.0225V246.394L50.8965 248.284L51.0765 250.192V256.492H49.7985ZM54.5865 251.956C55.2585 251.956 55.8585 251.806 56.3865 251.506C56.9145 251.194 57.3345 250.762 57.6465 250.21C57.9585 249.646 58.1145 248.998 58.1145 248.266C58.1145 247.534 57.9585 246.892 57.6465 246.34C57.3345 245.788 56.9145 245.356 56.3865 245.044C55.8585 244.732 55.2585 244.576 54.5865 244.576C53.9145 244.576 53.3085 244.732 52.7685 245.044C52.2405 245.356 51.8205 245.788 51.5085 246.34C51.2085 246.892 51.0585 247.534 51.0585 248.266C51.0585 248.998 51.2085 249.646 51.5085 250.21C51.8205 250.762 52.2405 251.194 52.7685 251.506C53.3085 251.806 53.9145 251.956 54.5865 251.956ZM65.8284 253.09C64.8924 253.09 64.0524 252.886 63.3084 252.478C62.5764 252.058 62.0004 251.488 61.5804 250.768C61.1604 250.036 60.9504 249.202 60.9504 248.266C60.9504 247.318 61.1604 246.484 61.5804 245.764C62.0004 245.044 62.5764 244.48 63.3084 244.072C64.0524 243.664 64.8924 243.46 65.8284 243.46C66.6324 243.46 67.3584 243.616 68.0064 243.928C68.6544 244.24 69.1644 244.708 69.5364 245.332L68.5824 245.98C68.2584 245.5 67.8564 245.146 67.3764 244.918C66.8964 244.69 66.3744 244.576 65.8104 244.576C65.1384 244.576 64.5324 244.732 63.9924 245.044C63.4524 245.344 63.0264 245.77 62.7144 246.322C62.4024 246.874 62.2464 247.522 62.2464 248.266C62.2464 249.01 62.4024 249.658 62.7144 250.21C63.0264 250.762 63.4524 251.194 63.9924 251.506C64.5324 251.806 65.1384 251.956 65.8104 251.956C66.3744 251.956 66.8964 251.842 67.3764 251.614C67.8564 251.386 68.2584 251.038 68.5824 250.57L69.5364 251.218C69.1644 251.83 68.6544 252.298 68.0064 252.622C67.3584 252.934 66.6324 253.09 65.8284 253.09ZM73.3652 253V244.324L73.6892 244.666H69.7832V243.55H78.2252V244.666H74.3192L74.6432 244.324V253H73.3652ZM79.803 253V243.55H83.979C85.047 243.55 85.887 243.754 86.499 244.162C87.123 244.57 87.435 245.17 87.435 245.962C87.435 246.73 87.141 247.324 86.553 247.744C85.965 248.152 85.191 248.356 84.231 248.356L84.483 247.978C85.611 247.978 86.439 248.188 86.967 248.608C87.495 249.028 87.759 249.634 87.759 250.426C87.759 251.242 87.459 251.878 86.859 252.334C86.271 252.778 85.353 253 84.105 253H79.803ZM81.045 251.992H84.051C84.855 251.992 85.461 251.866 85.869 251.614C86.289 251.35 86.499 250.93 86.499 250.354C86.499 249.778 86.313 249.358 85.941 249.094C85.569 248.83 84.981 248.698 84.177 248.698H81.045V251.992ZM81.045 247.744H83.889C84.621 247.744 85.179 247.606 85.563 247.33C85.959 247.054 86.157 246.652 86.157 246.124C86.157 245.596 85.959 245.2 85.563 244.936C85.179 244.672 84.621 244.54 83.889 244.54H81.045V247.744ZM94.3722 253.09C93.4602 253.09 92.6382 252.886 91.9062 252.478C91.1862 252.058 90.6162 251.488 90.1962 250.768C89.7762 250.036 89.5662 249.202 89.5662 248.266C89.5662 247.318 89.7762 246.484 90.1962 245.764C90.6162 245.044 91.1862 244.48 91.9062 244.072C92.6262 243.664 93.4482 243.46 94.3722 243.46C95.3082 243.46 96.1362 243.664 96.8562 244.072C97.5882 244.48 98.1582 245.044 98.5662 245.764C98.9862 246.484 99.1962 247.318 99.1962 248.266C99.1962 249.202 98.9862 250.036 98.5662 250.768C98.1582 251.488 97.5882 252.058 96.8562 252.478C96.1242 252.886 95.2962 253.09 94.3722 253.09ZM94.3722 251.956C95.0562 251.956 95.6622 251.806 96.1902 251.506C96.7182 251.194 97.1322 250.762 97.4322 250.21C97.7442 249.646 97.9002 248.998 97.9002 248.266C97.9002 247.522 97.7442 246.874 97.4322 246.322C97.1322 245.77 96.7182 245.344 96.1902 245.044C95.6622 244.732 95.0622 244.576 94.3902 244.576C93.7182 244.576 93.1182 244.732 92.5902 245.044C92.0622 245.344 91.6422 245.77 91.3302 246.322C91.0182 246.874 90.8622 247.522 90.8622 248.266C90.8622 248.998 91.0182 249.646 91.3302 250.21C91.6422 250.762 92.0622 251.194 92.5902 251.506C93.1182 251.806 93.7122 251.956 94.3722 251.956ZM107.898 253V244.324L108.222 244.666H104.316V243.55H112.758V244.666H108.852L109.176 244.324V253H107.898ZM119.214 253.09C118.398 253.09 117.66 252.904 117 252.532C116.34 252.148 115.812 251.602 115.416 250.894C115.032 250.174 114.84 249.298 114.84 248.266C114.84 247.234 115.032 246.364 115.416 245.656C115.8 244.936 116.322 244.39 116.982 244.018C117.642 243.646 118.386 243.46 119.214 243.46C120.114 243.46 120.918 243.664 121.626 244.072C122.346 244.468 122.91 245.032 123.318 245.764C123.726 246.484 123.93 247.318 123.93 248.266C123.93 249.226 123.726 250.066 123.318 250.786C122.91 251.506 122.346 252.07 121.626 252.478C120.918 252.886 120.114 253.09 119.214 253.09ZM114.336 256.492V243.55H115.56V246.394L115.434 248.284L115.614 250.192V256.492H114.336ZM119.124 251.956C119.796 251.956 120.396 251.806 120.924 251.506C121.452 251.194 121.872 250.762 122.184 250.21C122.496 249.646 122.652 248.998 122.652 248.266C122.652 247.534 122.496 246.892 122.184 246.34C121.872 245.788 121.452 245.356 120.924 245.044C120.396 244.732 119.796 244.576 119.124 244.576C118.452 244.576 117.846 244.732 117.306 245.044C116.778 245.356 116.358 245.788 116.046 246.34C115.746 246.892 115.596 247.534 115.596 248.266C115.596 248.998 115.746 249.646 116.046 250.21C116.358 250.762 116.778 251.194 117.306 251.506C117.846 251.806 118.452 251.956 119.124 251.956ZM130.294 253.09C129.382 253.09 128.56 252.886 127.828 252.478C127.108 252.058 126.538 251.488 126.118 250.768C125.698 250.036 125.488 249.202 125.488 248.266C125.488 247.318 125.698 246.484 126.118 245.764C126.538 245.044 127.108 244.48 127.828 244.072C128.548 243.664 129.37 243.46 130.294 243.46C131.23 243.46 132.058 243.664 132.778 244.072C133.51 244.48 134.08 245.044 134.488 245.764C134.908 246.484 135.118 247.318 135.118 248.266C135.118 249.202 134.908 250.036 134.488 250.768C134.08 251.488 133.51 252.058 132.778 252.478C132.046 252.886 131.218 253.09 130.294 253.09ZM130.294 251.956C130.978 251.956 131.584 251.806 132.112 251.506C132.64 251.194 133.054 250.762 133.354 250.21C133.666 249.646 133.822 248.998 133.822 248.266C133.822 247.522 133.666 246.874 133.354 246.322C133.054 245.77 132.64 245.344 132.112 245.044C131.584 244.732 130.984 244.576 130.312 244.576C129.64 244.576 129.04 244.732 128.512 245.044C127.984 245.344 127.564 245.77 127.252 246.322C126.94 246.874 126.784 247.522 126.784 248.266C126.784 248.998 126.94 249.646 127.252 250.21C127.564 250.762 127.984 251.194 128.512 251.506C129.04 251.806 129.634 251.956 130.294 251.956ZM137.579 253V243.55H138.875L143.159 250.804H142.619L146.975 243.55H148.163V253H146.993V245.008L147.227 245.116L143.159 251.848H142.583L138.479 245.044L138.749 244.99V253H137.579ZM155.778 253.108C155.01 253.108 154.326 252.982 153.726 252.73C153.138 252.478 152.634 252.094 152.214 251.578C151.794 251.062 151.476 250.426 151.26 249.67C151.044 248.902 150.936 248.014 150.936 247.006C150.936 246.106 151.02 245.32 151.188 244.648C151.356 243.964 151.59 243.376 151.89 242.884C152.19 242.392 152.538 241.978 152.934 241.642C153.342 241.294 153.78 241.018 154.248 240.814C154.728 240.598 155.22 240.436 155.724 240.328L159.972 239.338L160.188 240.526L156.192 241.426C155.94 241.486 155.634 241.57 155.274 241.678C154.926 241.786 154.566 241.948 154.194 242.164C153.834 242.38 153.498 242.68 153.186 243.064C152.874 243.448 152.622 243.946 152.43 244.558C152.25 245.158 152.16 245.908 152.16 246.808C152.16 247 152.166 247.156 152.178 247.276C152.19 247.384 152.202 247.504 152.214 247.636C152.238 247.756 152.256 247.936 152.268 248.176L151.71 247.708C151.842 246.976 152.112 246.34 152.52 245.8C152.928 245.248 153.438 244.822 154.05 244.522C154.674 244.21 155.364 244.054 156.12 244.054C156.996 244.054 157.776 244.246 158.46 244.63C159.144 245.002 159.678 245.524 160.062 246.196C160.458 246.868 160.656 247.648 160.656 248.536C160.656 249.412 160.452 250.198 160.044 250.894C159.648 251.59 159.084 252.136 158.352 252.532C157.62 252.916 156.762 253.108 155.778 253.108ZM155.922 252.046C156.594 252.046 157.188 251.896 157.704 251.596C158.22 251.284 158.622 250.864 158.91 250.336C159.21 249.808 159.36 249.214 159.36 248.554C159.36 247.906 159.21 247.33 158.91 246.826C158.622 246.322 158.22 245.926 157.704 245.638C157.188 245.338 156.588 245.188 155.904 245.188C155.232 245.188 154.638 245.332 154.122 245.62C153.606 245.896 153.198 246.286 152.898 246.79C152.61 247.294 152.466 247.876 152.466 248.536C152.466 249.196 152.61 249.79 152.898 250.318C153.198 250.846 153.606 251.266 154.122 251.578C154.65 251.89 155.25 252.046 155.922 252.046ZM167.013 253.09C166.101 253.09 165.279 252.886 164.547 252.478C163.827 252.058 163.257 251.488 162.837 250.768C162.417 250.036 162.207 249.202 162.207 248.266C162.207 247.318 162.417 246.484 162.837 245.764C163.257 245.044 163.827 244.48 164.547 244.072C165.267 243.664 166.089 243.46 167.013 243.46C167.949 243.46 168.777 243.664 169.497 244.072C170.229 244.48 170.799 245.044 171.207 245.764C171.627 246.484 171.837 247.318 171.837 248.266C171.837 249.202 171.627 250.036 171.207 250.768C170.799 251.488 170.229 252.058 169.497 252.478C168.765 252.886 167.937 253.09 167.013 253.09ZM167.013 251.956C167.697 251.956 168.303 251.806 168.831 251.506C169.359 251.194 169.773 250.762 170.073 250.21C170.385 249.646 170.541 248.998 170.541 248.266C170.541 247.522 170.385 246.874 170.073 246.322C169.773 245.77 169.359 245.344 168.831 245.044C168.303 244.732 167.703 244.576 167.031 244.576C166.359 244.576 165.759 244.732 165.231 245.044C164.703 245.344 164.283 245.77 163.971 246.322C163.659 246.874 163.503 247.522 163.503 248.266C163.503 248.998 163.659 249.646 163.971 250.21C164.283 250.762 164.703 251.194 165.231 251.506C165.759 251.806 166.353 251.956 167.013 251.956ZM174.299 253V243.55H175.577V251.884H181.355V243.55H182.633V253H174.299ZM182.957 255.286V252.892L183.281 253H181.355V251.884H184.163V255.286H182.957ZM186.333 253V243.55H187.611V251.056L193.929 243.55H195.063V253H193.785V245.476L187.485 253H186.333ZM200.256 253V244.324L200.58 244.666H196.674V243.55H205.116V244.666H201.21L201.534 244.324V253H200.256ZM210.142 253.09C209.23 253.09 208.408 252.886 207.676 252.478C206.956 252.058 206.386 251.488 205.966 250.768C205.546 250.036 205.336 249.202 205.336 248.266C205.336 247.318 205.546 246.484 205.966 245.764C206.386 245.044 206.956 244.48 207.676 244.072C208.396 243.664 209.218 243.46 210.142 243.46C211.078 243.46 211.906 243.664 212.626 244.072C213.358 244.48 213.928 245.044 214.336 245.764C214.756 246.484 214.966 247.318 214.966 248.266C214.966 249.202 214.756 250.036 214.336 250.768C213.928 251.488 213.358 252.058 212.626 252.478C211.894 252.886 211.066 253.09 210.142 253.09ZM210.142 251.956C210.826 251.956 211.432 251.806 211.96 251.506C212.488 251.194 212.902 250.762 213.202 250.21C213.514 249.646 213.67 248.998 213.67 248.266C213.67 247.522 213.514 246.874 213.202 246.322C212.902 245.77 212.488 245.344 211.96 245.044C211.432 244.732 210.832 244.576 210.16 244.576C209.488 244.576 208.888 244.732 208.36 245.044C207.832 245.344 207.412 245.77 207.1 246.322C206.788 246.874 206.632 247.522 206.632 248.266C206.632 248.998 206.788 249.646 207.1 250.21C207.412 250.762 207.832 251.194 208.36 251.506C208.888 251.806 209.482 251.956 210.142 251.956ZM217.428 253V243.55H221.604C222.672 243.55 223.512 243.754 224.124 244.162C224.748 244.57 225.06 245.17 225.06 245.962C225.06 246.73 224.766 247.324 224.178 247.744C223.59 248.152 222.816 248.356 221.856 248.356L222.108 247.978C223.236 247.978 224.064 248.188 224.592 248.608C225.12 249.028 225.384 249.634 225.384 250.426C225.384 251.242 225.084 251.878 224.484 252.334C223.896 252.778 222.978 253 221.73 253H217.428ZM218.67 251.992H221.676C222.48 251.992 223.086 251.866 223.494 251.614C223.914 251.35 224.124 250.93 224.124 250.354C224.124 249.778 223.938 249.358 223.566 249.094C223.194 248.83 222.606 248.698 221.802 248.698H218.67V251.992ZM218.67 247.744H221.514C222.246 247.744 222.804 247.606 223.188 247.33C223.584 247.054 223.782 246.652 223.782 246.124C223.782 245.596 223.584 245.2 223.188 244.936C222.804 244.672 222.246 244.54 221.514 244.54H218.67V247.744Z" fill="#162D4E"/>
<ellipse cx="118.371" cy="105.496" rx="12.5" ry="15" transform="rotate(-42.9695 118.371 105.496)" fill="#FDB4B4"/>
<ellipse cx="109.472" cy="139.734" rx="13.3178" ry="16.8568" transform="rotate(53.486 109.472 139.734)" fill="#FDB4B4"/>
<circle cx="137.5" cy="127.5" r="6.5" fill="#FDB4B4"/>
<circle cx="91" cy="113" r="8" fill="#FDB4B4"/>
<circle cx="2" cy="2" r="2" transform="matrix(1 0 0 -1 89 131)" fill="#FDB4B4"/>
<circle cx="2" cy="2" r="2" transform="matrix(1 0 0 -1 136 113)" fill="#FDB4B4"/>
<circle cx="2" cy="2" r="2" transform="matrix(1 0 0 -1 132 142)" fill="#FDB4B4"/>
</svg>
